<svg width="85" height="86" viewBox="0 0 85 86" fill="none" xmlns="http://www.w3.org/2000/svg">
<circle cx="42" cy="43.4" r="34" fill="#FF6250" stroke="#2D2D2D" stroke-width="2"/>
<path d="M56.5 39.37H26.53C26.4527 39.37 26.39 39.4327 26.39 39.51V46.46C26.39 46.5373 26.4527 46.6 26.53 46.6H56.5C56.5773 46.6 56.64 46.5373 56.64 46.46V39.51C56.64 39.4327 56.5773 39.37 56.5 39.37Z" fill="white"/>
<path d="M43.3999 39.2402C43.7585 39.2857 44.1214 39.2857 44.48 39.2402C44.98 39.2402 45.48 39.2401 46.01 39.1801L48.96 39.1102H49.46C50.0201 39.1955 50.5898 39.1955 51.1499 39.1102C51.2463 39.1003 51.3435 39.1003 51.4399 39.1102C52.6599 39.2502 53.8801 39.1102 55.1001 39.1102H56.25C56.46 39.1102 56.6501 39.1102 56.8101 39.2402C56.8848 39.4173 56.9221 39.6079 56.9199 39.8001V39.8502C56.9199 40.0702 56.9199 40.3302 56.9199 40.5002C56.9246 40.6664 56.9516 40.8311 57 40.9902C57.017 41.1129 57.017 41.2374 57 41.3602C57 42.2502 57 42.9901 57 43.7001V44.7001C57 45.0701 57 45.4602 57 45.8702C57.0342 46.152 57.0103 46.4379 56.9299 46.7101C56.914 46.7728 56.8814 46.83 56.8357 46.8758C56.7899 46.9215 56.7326 46.9542 56.6699 46.9702C56.5431 47.0103 56.4125 47.0371 56.28 47.0501H54.77H51.51C50.66 47.0501 49.81 47.0501 48.96 47.0501C47.63 47.0501 46.29 47.0502 44.96 47.1202C43.63 47.1902 42.49 47.2202 41.25 47.2202H38.9199H37.3899C36.1599 47.2202 34.92 47.2902 33.71 47.2202C32.24 47.2202 30.8101 47.2201 29.3801 47.3001C29.1101 47.3001 28.8401 47.3002 28.6001 47.3702C27.9721 47.5178 27.3125 47.4472 26.73 47.1701C26.46 46.9901 26.28 46.8001 26.53 46.5901C26.78 46.3801 27.03 46.2601 27.95 46.2801C28.87 46.3001 29.5 46.2201 30.29 46.2801C30.5293 46.2693 30.767 46.2359 31 46.1801C32 46.1801 33 46.1802 34 46.1002C34.33 46.1002 34.7201 46.1002 35.0801 46.1002C35.4401 46.1002 36.08 46.1002 36.5 46.1002C37.68 46.1002 38.87 46.1001 40.04 46.0301C40.38 46.0301 40.7799 46.0301 41.1499 46.0301C42.2291 46.0901 43.3107 46.0901 44.3899 46.0301C45.3899 46.1601 46.3899 46.0302 47.3899 46.1102C47.7399 46.1102 48.11 46.1102 48.47 46.1102H48.6899L50.46 46.0301H52.6699C53.1899 46.0301 53.67 46.0301 54.23 46.0301C54.4731 46.0442 54.7168 46.0442 54.96 46.0301C55.1649 46.012 55.3687 45.9819 55.5701 45.9401C55.6824 46.0032 55.8123 46.0279 55.9399 46.0102C55.9999 45.9102 55.9399 45.7601 55.9399 45.6401V43.0401V40.1401C55.9553 40.0541 55.9553 39.9662 55.9399 39.8802C55.8799 39.8202 55.7699 39.8802 55.6899 39.8802H55.4199H54.8999C54.6526 39.9264 54.4015 39.9498 54.1499 39.9501C53.1507 39.8951 52.1491 39.8951 51.1499 39.9501H50.5601C50.4858 39.9231 50.406 39.9144 50.3276 39.9249C50.2493 39.9353 50.1747 39.9646 50.1101 40.0102H49.54C49.2793 39.973 49.0136 40.0184 48.78 40.1401C48.42 40.1401 48.2001 39.9901 47.8401 40.1401C47.2101 40.1401 46.56 40.1401 45.95 40.1401C44.9857 40.1092 44.0205 40.1393 43.0601 40.2302C42.7906 40.2955 42.5094 40.2955 42.24 40.2302C42.17 40.2302 41.7799 40.2302 41.6699 40.2302C41.4943 40.2036 41.3156 40.2036 41.1399 40.2302C40.2099 40.2302 39.2701 40.2302 38.3401 40.2302C38.0072 40.2047 37.6729 40.2047 37.3401 40.2302C36.735 40.3401 36.1151 40.3401 35.51 40.2302C35.1215 40.1813 34.7286 40.1813 34.3401 40.2302C33.7163 40.3554 33.0737 40.3554 32.45 40.2302C32.2141 40.2028 31.9759 40.2028 31.74 40.2302H31.6399H31.75L28.4299 40.2901C28.0399 40.2901 27.61 40.2901 27.26 40.2901C27.26 40.2901 27.1899 40.2901 27.1699 40.3401V40.7302C27.1699 41.7302 27.31 42.6402 27.27 43.6302C27.235 44.263 27.235 44.8972 27.27 45.5301C27.2986 45.7459 27.2746 45.9655 27.2 46.1701C27.176 46.2458 27.1461 46.3193 27.1101 46.3901H26.71V46.2801C26.62 45.9901 26.5299 45.7101 26.4299 45.4101C26.3299 45.1101 26.3701 44.4902 26.3401 44.0102C26.2953 43.7622 26.2953 43.5082 26.3401 43.2602C26.385 43.0088 26.385 42.7515 26.3401 42.5002C26.2201 41.9402 26.2299 41.2701 26.1399 40.7001C26.28 40.3866 26.3219 40.0379 26.26 39.7001C26.26 39.5901 26.26 39.4901 26.26 39.4001C26.2612 39.3768 26.2672 39.3542 26.2776 39.3333C26.288 39.3125 26.3025 39.2939 26.3203 39.2789C26.3381 39.2639 26.3588 39.2527 26.3811 39.246C26.4034 39.2394 26.4268 39.2374 26.45 39.2402C26.6296 39.2253 26.8103 39.2253 26.99 39.2402C27.3265 39.2602 27.6609 39.307 27.99 39.3802L28.49 39.2001C28.5689 39.2964 28.6754 39.3661 28.7952 39.4001C28.9149 39.434 29.0422 39.4306 29.1599 39.3901C30.0193 39.2162 30.9025 39.1925 31.77 39.3201L32.1599 39.1102L32.6301 39.3001C33.0383 39.2448 33.452 39.2448 33.8601 39.3001C33.9798 39.3123 34.1003 39.3123 34.22 39.3001C34.39 39.3001 34.58 39.3001 34.72 39.3001C34.8925 39.2463 35.0774 39.2463 35.25 39.3001H35.48H35.24C35.3 39.1901 35.5401 39.1601 35.8301 39.1501C36.2901 39.1501 36.83 39.1501 37.2 39.0501C37.6318 39.0404 38.0627 39.0037 38.49 38.9401C38.7359 38.9127 38.9841 38.9127 39.23 38.9401C39.8862 38.795 40.5587 38.7378 41.23 38.7701L42.1499 39.0601H42.3501H43.3501L43.3999 39.2402Z" fill="white"/>
<path d="M26.21 40.0901C26.15 40.2601 26.1 40.4601 26.04 40.6001V40.53C26.04 40.43 26.0401 40.2201 26.1001 40.1101C26.1243 40.0266 26.1577 39.9461 26.2 39.8701L26.21 40.0901Z" fill="white"/>
<path d="M43.8401 39.0801L43.9399 39.02C43.9897 39.013 44.0403 39.013 44.0901 39.02C44.0901 39.02 44.0901 39.0201 44.0901 39.0701L43.8401 39.0801Z" fill="white"/>
<path d="M43.41 39.2401L43.5 39.1901L43.58 39.2201L43.4 39.2401H43.41Z" fill="white"/>
<path d="M53 40.0601H53.0801H52.99C52.99 40.0601 53.01 40.0701 53 40.0601Z" fill="white"/>
<path d="M42.1699 39.22L42.3199 39.17L42.3799 39.22H42.3899H42.1599H42.1699Z" fill="white"/>
<path d="M38.8301 38.36L38.8801 38.37L38.8101 38.38L38.8301 38.36Z" fill="white"/>
<path d="M47.99 40.0801L48.19 40.1501H48.2L48 40.0701L47.99 40.0801Z" fill="white"/>
<path d="M50.46 40.05H50.27H50.26L50.48 40.06L50.46 40.05Z" fill="white"/>
<path d="M50.69 39.99L50.46 40.05L50.48 40.06L50.7 39.99H50.69Z" fill="white"/>
<path d="M48.62 46.26L48.84 46.27V46.26H48.61H48.62Z" fill="white"/>
<path d="M44.98 27.86H38.03C37.9527 27.86 37.89 27.9227 37.89 28V57.97C37.89 58.0473 37.9527 58.11 38.03 58.11H44.98C45.0573 58.11 45.12 58.0473 45.12 57.97V28C45.12 27.9227 45.0573 27.86 44.98 27.86Z" fill="white"/>
<path d="M37.77 41.1001C37.8256 40.7389 37.8256 40.3713 37.77 40.0101C37.77 39.5201 37.7699 39.0101 37.7099 38.4901L37.6398 35.4901C37.6398 35.3201 37.6398 35.1501 37.6398 34.9901C37.7252 34.43 37.7252 33.8601 37.6398 33.3C37.6299 33.2036 37.6299 33.1065 37.6398 33.0101C37.7698 31.7901 37.6398 30.5701 37.6398 29.3401V28.2001C37.6398 27.9901 37.64 27.8 37.77 27.64C37.9471 27.5653 38.1378 27.5278 38.33 27.53H39.04C39.2023 27.5196 39.3631 27.4929 39.52 27.4501C39.6461 27.4332 39.7737 27.4332 39.8998 27.4501C40.7898 27.4501 41.5299 27.4501 42.2299 27.4501H43.2299H44.3998C44.6817 27.415 44.9678 27.4387 45.2399 27.52C45.3026 27.536 45.36 27.5686 45.4057 27.6144C45.4515 27.6601 45.484 27.7173 45.4999 27.78C45.5438 27.9064 45.5741 28.0372 45.59 28.17V29.68L45.6398 32.94C45.6398 33.79 45.6398 34.6401 45.6398 35.4901C45.6398 36.8201 45.6399 38.1601 45.7099 39.4901C45.7799 40.8201 45.81 41.9601 45.82 43.2001V45.53V47.06C45.82 48.29 45.89 49.5301 45.82 50.7401C45.7663 52.1838 45.7929 53.6293 45.8998 55.0701C45.8998 55.3301 45.8999 55.6101 45.9599 55.8501C46.1076 56.478 46.0371 57.1375 45.76 57.7201C45.58 57.9901 45.3899 58.17 45.1799 57.92C44.9699 57.67 44.8601 57.4201 44.8701 56.5001C44.8801 55.5801 44.8101 54.95 44.8701 54.16C44.8642 53.9203 44.8306 53.6821 44.77 53.4501C44.77 52.4501 44.7699 51.4501 44.6899 50.4501C44.6703 50.0903 44.6703 49.7298 44.6899 49.3701C44.6899 48.9001 44.6899 48.4201 44.6899 47.9501C44.6899 46.7701 44.6901 45.58 44.6101 44.4C44.6101 44.07 44.6101 43.67 44.6101 43.3C44.6751 42.221 44.6751 41.1391 44.6101 40.06C44.7401 39.06 44.6099 38.06 44.6899 37.06C44.7094 36.697 44.7094 36.3332 44.6899 35.9701V35.7401C44.6899 35.1501 44.6401 34.5401 44.6101 33.9701C44.6101 33.2401 44.6101 32.5001 44.6101 31.7601C44.6101 31.2401 44.5601 30.7601 44.6101 30.2001C44.6292 29.9571 44.6292 29.713 44.6101 29.4701C44.5919 29.2652 44.5618 29.0615 44.52 28.8601C44.5816 28.747 44.6095 28.6186 44.6 28.4901C44.49 28.4301 44.3399 28.4901 44.2299 28.4901H41.6201H38.7199C38.6335 28.4799 38.5463 28.4799 38.4599 28.4901C38.4599 28.5601 38.4599 28.6701 38.4599 28.7501V29.02V29.55C38.4982 29.7982 38.5183 30.0489 38.52 30.3C38.4646 31.2993 38.4646 32.3008 38.52 33.3V33.91C38.47 34.15 38.52 34.2801 38.59 34.3501C38.59 34.5401 38.59 34.73 38.59 34.92C38.5455 35.1797 38.5876 35.4467 38.7099 35.68C38.7099 36.04 38.5699 36.2601 38.6599 36.6201C38.6599 37.2501 38.6599 37.9001 38.6599 38.5101C38.6341 39.4744 38.6642 40.4392 38.7499 41.4C38.8153 41.6694 38.8153 41.9506 38.7499 42.2201C38.7499 42.2901 38.8099 42.68 38.7499 42.79C38.7233 42.9657 38.7233 43.1444 38.7499 43.3201C38.7499 44.2501 38.7499 45.1901 38.7499 46.1201C38.7499 46.4501 38.7499 46.8201 38.7499 47.1201C38.855 47.7256 38.855 48.3446 38.7499 48.9501C38.6957 49.3382 38.6957 49.732 38.7499 50.1201C38.8752 50.7439 38.8752 51.3863 38.7499 52.0101C38.7278 52.2463 38.7278 52.4839 38.7499 52.7201L38.6999 52.8201L38.7499 52.7101L38.8 56.03C38.8 56.42 38.8 56.8501 38.8 57.2001C38.8 57.2001 38.8 57.27 38.85 57.28C38.85 57.28 38.8498 57.28 38.8998 57.28H39.1899C40.1899 57.28 41.1 57.14 42.09 57.18C42.7229 57.215 43.3571 57.215 43.9899 57.18C44.2058 57.1514 44.4255 57.1755 44.6301 57.2501C44.7057 57.274 44.7793 57.3041 44.85 57.3401H44.8998V58.03V57.7401H44.79L43.9199 58.02L42.52 58.1101C42.2753 58.155 42.0246 58.155 41.78 58.1101C41.5253 58.0652 41.2647 58.0652 41.01 58.1101C40.45 58.2301 39.7799 58.22 39.2099 58.31C38.8963 58.17 38.5477 58.1281 38.2099 58.19H37.9099C37.8866 58.1888 37.8638 58.1828 37.843 58.1725C37.8221 58.1621 37.8038 58.1476 37.7888 58.1297C37.7738 58.1119 37.7625 58.0913 37.7558 58.069C37.7491 58.0466 37.7472 58.0232 37.7499 58.0001C37.74 57.8202 37.74 57.6399 37.7499 57.4601C37.7749 57.1241 37.8215 56.79 37.8898 56.4601L37.7199 55.9601C37.8144 55.8799 37.8823 55.7729 37.9145 55.6532C37.9467 55.5335 37.9415 55.4068 37.8998 55.29C37.7261 54.4306 37.7026 53.5476 37.83 52.68L37.6301 52.29C37.6901 52.13 37.75 51.9901 37.81 51.8201C37.7696 51.4093 37.7899 50.9949 37.8701 50.5901C37.8812 50.4703 37.8812 50.3498 37.8701 50.2301C37.8701 50.0601 37.8701 49.8701 37.8701 49.7301C37.8162 49.5575 37.8162 49.3726 37.8701 49.2001L37.9199 48.9601L37.8701 49.2101C37.7701 49.1501 37.7399 48.9101 37.7199 48.6201C37.7199 48.1601 37.7201 47.6201 37.6201 47.2501C37.6204 46.8178 37.5834 46.3861 37.51 45.9601C37.4928 45.7137 37.4928 45.4664 37.51 45.2201C37.3649 44.5639 37.3078 43.8913 37.34 43.2201C37.44 42.9201 37.5401 42.61 37.6301 42.3V42.0901V41.0901L37.77 41.1001Z" fill="white"/>
<path d="M38.6301 58.29C38.7901 58.35 38.9901 58.4001 39.1301 58.4601H39.0601C38.9202 58.4693 38.7797 58.4693 38.6399 58.4601C38.5564 58.4359 38.4759 58.4024 38.3999 58.3601L38.6301 58.29Z" fill="white"/>
<path d="M37.6102 40.7001L37.5501 40.6001C37.5432 40.547 37.5432 40.4932 37.5501 40.4401C37.5501 40.4401 37.5502 40.4401 37.6002 40.4401L37.6102 40.7001Z" fill="white"/>
<path d="M37.69 56.3801C37.6857 56.3536 37.6857 56.3265 37.69 56.3V56.3701V56.3801Z" fill="white"/>
<path d="M36.9098 34.78V34.8601V34.7601C36.9096 34.7668 36.9096 34.7734 36.9098 34.78Z" fill="white"/>
<path d="M37.77 41.09L37.71 40.99L37.74 40.91L37.77 41.1V41.09Z" fill="white"/>
<path d="M38.5901 31.5001V31.42V31.5001C38.6001 31.4901 38.5901 31.5001 38.5901 31.5001Z" fill="white"/>
<path d="M37.75 42.32L37.7 42.17L37.75 42.12V42.11L37.74 42.34L37.75 42.32Z" fill="white"/>
<path d="M36.89 45.67L36.9 45.62L36.91 45.68L36.89 45.67Z" fill="white"/>
<path d="M38.61 36.5L38.68 36.3V36.29L38.6 36.49L38.61 36.5Z" fill="white"/>
<path d="M38.5801 34.03V34.23L38.5901 34.02L38.5801 34.03Z" fill="white"/>
<path d="M38.52 33.8L38.58 34.03L38.59 34.02L38.52 33.79V33.8Z" fill="white"/>
</svg>
