<svg width="85" height="86" viewBox="0 0 85 86" fill="none" xmlns="http://www.w3.org/2000/svg">
<path d="M22.792 69.6032C34.8274 75.625 49.4656 70.7501 55.4875 58.7147C61.5093 46.6793 56.6344 32.0411 44.599 26.0192C32.5636 19.9974 17.9253 24.8723 11.9035 36.9077C5.88168 48.9431 10.7566 63.5813 22.792 69.6032Z" fill="white"/>
<path d="M65.1789 29.0418C70.6218 31.7651 77.242 29.5605 79.9653 24.1175C82.6887 18.6745 80.484 12.0544 75.041 9.33107C69.5981 6.60771 62.978 8.81239 60.2546 14.2554C57.5312 19.6983 59.7359 26.3184 65.1789 29.0418Z" fill="#F2BFAF" stroke="#2D2D2D" stroke-width="2" stroke-miterlimit="10"/>
<path d="M26.7439 71.1347C27.6497 70.0713 28.4232 68.9021 29.0475 67.6525C31.099 63.5523 31.4376 58.8051 29.989 54.4552C28.5404 50.1053 25.4231 46.509 21.3229 44.4575C17.7814 42.6772 13.7337 42.1751 9.86458 43.036" stroke="#F8D57E" stroke-width="2" stroke-miterlimit="10"/>
<path d="M42.2108 24.4897C40.9403 25.7532 39.8842 27.2154 39.0843 28.8188C37.1212 32.7423 36.7966 37.2848 38.1819 41.4476C39.5672 45.6103 42.549 49.0525 46.4716 51.0173C49.9202 52.7497 53.8679 53.2152 57.6249 52.3324" stroke="#F8D57E" stroke-width="2" stroke-miterlimit="10"/>
<path d="M29.1803 66.7328L26.6803 70.7328L19.6803 66.7328L14.6803 62.7328L10.6803 56.2328L9.1803 49.7328L10.1803 43.2328H14.6803L20.6803 44.2328L27.1803 49.2328L29.1803 54.2328L30.6803 60.2328L29.1803 66.7328Z" fill="#F8D57E"/>
<path d="M39.8814 28.3311L42.665 24.523L49.3563 29.0204L54.0529 33.3727L57.5708 40.1458L58.5952 46.7375L57.1262 53.1478L52.638 52.8213L46.7264 51.3885L40.6063 45.9301L37.9137 40.1458L37.9137 34.7051L39.8814 28.3311Z" fill="#F8D57E"/>
<path d="M22.792 69.6032C34.8274 75.625 49.4656 70.7501 55.4875 58.7147C61.5093 46.6793 56.6344 32.0411 44.599 26.0192C32.5636 19.9974 17.9253 24.8723 11.9035 36.9077C5.88168 48.9431 10.7566 63.5813 22.792 69.6032Z" stroke="#2D2D2D" stroke-width="2" stroke-miterlimit="10"/>
</svg>
