<svg width="85" height="86" viewBox="0 0 85 86" fill="none" xmlns="http://www.w3.org/2000/svg">
<path d="M73.0521 37.786C75.2573 35.432 76.382 32.1138 75.7783 28.6896C74.7606 22.918 69.2632 19.0687 63.4916 20.0864C57.72 21.1041 53.8707 26.6014 54.8884 32.373C55.0137 33.0837 55.2125 33.7703 55.4613 34.4259L27.8953 39.2866C27.9157 38.5835 27.8569 37.8722 27.7316 37.1615C26.7139 31.3899 21.2166 27.5406 15.4449 28.5583C9.6733 29.576 5.82403 35.0733 6.84172 40.845C7.4455 44.2692 9.62653 47.0045 12.5146 48.4604C10.3094 50.8144 9.1847 54.1326 9.78848 57.5568C10.8062 63.3285 16.3035 67.1778 22.0751 66.1601C27.8468 65.1424 31.696 59.645 30.6783 53.8734C30.553 53.1627 30.3542 52.4761 30.1054 51.8205L57.6714 46.9599C57.651 47.6629 57.7099 48.3742 57.8352 49.0849C58.8529 54.8566 64.3502 58.7058 70.1218 57.6881C75.8934 56.6704 79.7427 51.1731 78.725 45.4015C78.1105 41.9792 75.9294 39.2439 73.0521 37.786Z" fill="#2D2D2D"/>
</svg>
