<svg width="85" height="86" viewBox="0 0 85 86" fill="none" xmlns="http://www.w3.org/2000/svg">
<path d="M36 45.4L39 48.9L33.5 54.4L36 56.4L32 58.4L29.5 56.4H25L21.5 59.9V63.9L23.5 67.4L21.5 70.4L17 63.9L18 58.4L21.5 54.4L36 45.4Z" fill="#009379"/>
<path d="M37.5 59.4L36 55.9L32.5 57.9V60.9V64.9L30.5 66.9H27L24 66.4L21.5 69.9L25 71.4H30.5L34.5 68.9L37 64.9L37.5 59.4Z" fill="#009379"/>
<path d="M24.0227 52.607L42.5673 41.1039V35.4849L72.4662 20.8588L33.7217 53.7644" stroke="#2D2D2D" stroke-width="2" stroke-linecap="round" stroke-linejoin="round"/>
<path d="M24.0551 52.6781C22.175 53.4411 20.5653 54.7475 19.4319 56.4304C18.2985 58.1133 17.6928 60.096 17.6925 62.125C17.6925 64.8294 18.7668 67.423 20.6791 69.3353C22.5914 71.2476 25.185 72.3219 27.8894 72.3219C30.5938 72.3219 33.1875 71.2476 35.0997 69.3353C37.012 67.423 38.0864 64.8294 38.0864 62.125C38.0859 60.4836 37.6896 58.8666 36.9309 57.4111C36.1722 55.9556 35.0736 54.7047 33.7283 53.7644" stroke="#2D2D2D" stroke-width="2" stroke-linecap="round" stroke-linejoin="round"/>
<path d="M33.4387 36.8475L34.4387 31.6186L28.7703 30.295L29.9157 27.3054L25.4534 27.6028L24.3081 30.5924L20.4259 32.8681L15.6364 31.6186L13.6136 28.1677L13.5691 24.1368L10.3266 22.5601L10.3265 29.8476L13.3755 34.6826L18.4178 36.3635L33.4387 36.8475Z" fill="#009379"/>
<path d="M29.6927 23.9586L30.1686 27.7367L26.1377 27.7812L25.4388 23.8475L21.9388 20.8475L17.9388 20.3475L15.4388 22.3475L14.5062 24.7466L10.5795 22.9914L12.8404 19.9274L16.4388 16.3475L21.9388 15.8475L26.1377 18.3475L29.6927 23.9586Z" fill="#009379"/>
<path d="M27.8183 67.9121C31.0287 67.9121 33.6313 65.3095 33.6313 62.0991C33.6313 58.8887 31.0287 56.2861 27.8183 56.2861C24.6079 56.2861 22.0054 58.8887 22.0054 62.0991C22.0054 65.3095 24.6079 67.9121 27.8183 67.9121Z" stroke="#2D2D2D" stroke-width="2" stroke-linecap="round" stroke-linejoin="round"/>
<path d="M44.9145 34.334L29.0081 30.9005" stroke="#2D2D2D" stroke-width="2" stroke-linecap="round" stroke-linejoin="round"/>
<path d="M46.6344 42.8043L78.6994 41.6275L54.232 36.3447" stroke="#2D2D2D" stroke-width="2" stroke-linecap="round" stroke-linejoin="round"/>
<path d="M20.7445 36.4224L42.5221 37.8061" stroke="#2D2D2D" stroke-width="2" stroke-linecap="round" stroke-linejoin="round"/>
<path d="M21.0031 36.429C18.9843 36.6447 16.947 36.2529 15.1523 35.3037C13.3575 34.3544 11.887 32.8911 10.929 31.101C10.2968 29.9208 9.90328 28.6276 9.77103 27.2952C9.63878 25.9629 9.77037 24.6176 10.1583 23.3362C10.5462 22.0547 11.1828 20.8623 12.0318 19.827C12.8808 18.7917 13.9254 17.9338 15.1061 17.3025C16.2864 16.6698 17.5797 16.2758 18.9123 16.143C20.2448 16.0102 21.5905 16.1412 22.8724 16.5285C24.1543 16.9158 25.3474 17.5518 26.3835 18.4001C27.4196 19.2485 28.2785 20.2927 28.9111 21.4731C29.6848 22.9204 30.0981 24.533 30.1161 26.1741C30.1341 27.8152 29.7563 29.4365 29.0145 30.9005" stroke="#2D2D2D" stroke-width="2" stroke-linecap="round" stroke-linejoin="round"/>
<path d="M19.8716 32.1613C23.082 32.1613 25.6845 29.5588 25.6845 26.3484C25.6845 23.138 23.082 20.5354 19.8716 20.5354C16.6611 20.5354 14.0586 23.138 14.0586 26.3484C14.0586 29.5588 16.6611 32.1613 19.8716 32.1613Z" stroke="#2D2D2D" stroke-width="2" stroke-linecap="round" stroke-linejoin="round"/>
<path d="M48.1886 37.1154C48.1885 37.1149 48.1885 37.1145 48.1885 37.1143C48.1885 37.1141 48.1885 37.1137 48.1886 37.1132C48.1889 37.1121 48.1892 37.1109 48.1897 37.1098C48.1905 37.1078 48.1913 37.107 48.1916 37.1067C48.1918 37.1065 48.1927 37.1057 48.1947 37.1049C48.1957 37.1044 48.1969 37.104 48.198 37.1038C48.1985 37.1037 48.1989 37.1037 48.1991 37.1036C48.1994 37.1037 48.1997 37.1037 48.2002 37.1038C48.2014 37.104 48.2025 37.1044 48.2036 37.1049C48.2056 37.1057 48.2065 37.1065 48.2067 37.1067C48.2069 37.107 48.2077 37.1078 48.2086 37.1098C48.209 37.1109 48.2094 37.1121 48.2096 37.1132C48.2097 37.1137 48.2098 37.1141 48.2098 37.1143C48.2098 37.1145 48.2097 37.1149 48.2096 37.1154C48.2094 37.1165 48.209 37.1177 48.2086 37.1188C48.2077 37.1208 48.2069 37.1216 48.2067 37.1219C48.2065 37.1221 48.2056 37.1229 48.2036 37.1237C48.2025 37.1242 48.2014 37.1246 48.2002 37.1248C48.1997 37.1249 48.1994 37.125 48.1991 37.125C48.1989 37.125 48.1985 37.1249 48.198 37.1248C48.1969 37.1246 48.1957 37.1242 48.1947 37.1237C48.1927 37.1229 48.1918 37.1221 48.1916 37.1219C48.1913 37.1216 48.1905 37.1208 48.1897 37.1188C48.1892 37.1177 48.1889 37.1165 48.1886 37.1154Z" fill="#2D2D2D" stroke="#2D2D2D" stroke-width="2"/>
</svg>
