<svg width="287" height="78" viewBox="0 0 287 78" fill="none" xmlns="http://www.w3.org/2000/svg">
<g clip-path="url(#clip0_902_467)">
<path d="M145.957 60.2084C145.957 60.2084 148.117 69.0598 148.462 70.4966C148.864 72.1735 149.589 72.7906 151.679 72.3744L153.028 66.8866C153.37 65.5235 153.599 64.5516 153.819 63.165H153.858C154.012 64.5653 154.232 65.5275 154.513 66.8914C154.513 66.8914 155.062 69.3827 155.344 70.6912C155.625 71.9993 156.41 72.8237 158.457 72.3749L161.671 60.2094H159.077L157.979 65.4691C157.684 67.0001 157.417 68.1964 157.21 69.597H157.174C156.986 68.2104 156.748 67.0615 156.448 65.5698L155.305 60.2094H152.602L151.38 65.4347C151.033 67.0226 150.71 68.3048 150.504 69.6579H150.466C150.255 68.3836 149.975 66.7722 149.67 65.2351C149.67 65.2351 148.944 61.4976 148.69 60.2094L145.957 60.2097L145.957 60.2084ZM170.693 60.2084V72.374H173.163V69.7907V60.2078H170.693V60.2084ZM205.487 60.2084V69.1831C205.487 70.4205 205.72 71.2874 206.218 71.8171C206.654 72.2803 207.371 72.5802 208.23 72.5802C208.96 72.5802 209.679 72.4417 210.017 72.3155L209.986 70.3849C209.734 70.447 209.444 70.4966 209.047 70.4966C208.206 70.4966 207.923 69.9576 207.923 68.8466V65.4129H210.075V63.0853H207.923V60.2085H205.487L205.487 60.2084ZM165.172 63.0287C163.637 63.0287 162.418 63.4597 161.754 63.8436L162.24 65.5084C162.848 65.1251 163.816 64.8078 164.732 64.8078C166.25 64.8039 166.498 65.666 166.498 66.2188V66.3496C163.191 66.3446 161.102 67.4889 161.102 69.8214C161.102 71.2456 162.166 72.5802 164.015 72.5802C165.153 72.5802 166.105 72.1263 166.675 71.3989H166.731C166.731 71.3989 167.109 72.9785 169.19 72.3745C169.081 71.717 169.046 71.0161 169.046 70.1719V66.9219C169.046 64.8505 168.161 63.0287 165.172 63.0287L165.172 63.0287ZM179.95 63.0287C178.404 63.0287 177.709 63.8121 177.288 64.4768H177.252V63.235H174.894V72.3745H177.378V67.0146C177.378 66.7633 177.406 66.4976 177.494 66.2664C177.7 65.7268 178.202 65.0955 179.004 65.0955C180.006 65.0955 180.475 65.9427 180.475 67.1655V72.3744H182.956V66.9496C182.956 66.7097 182.988 66.4208 183.059 66.2087C183.263 65.5949 183.804 65.0954 184.549 65.0954C185.565 65.0954 186.053 65.9279 186.053 67.3667V72.3745H188.536V66.9915C188.536 64.1527 187.094 63.0287 185.467 63.0287C184.746 63.0287 184.178 63.2094 183.663 63.5251C183.231 63.7904 182.844 64.1672 182.506 64.6635H182.469C182.076 63.6785 181.152 63.0287 179.95 63.0287L179.95 63.0287ZM193.588 63.0287C192.053 63.0287 190.835 63.4597 190.17 63.8436L190.657 65.5084C191.264 65.1251 192.233 64.8078 193.149 64.8078C194.666 64.8039 194.914 65.666 194.914 66.2188V66.3496C191.608 66.3446 189.519 67.4889 189.519 69.8214C189.519 71.2456 190.583 72.5802 192.433 72.5802C193.57 72.5802 194.522 72.1263 195.092 71.3989H195.148C195.148 71.3989 195.526 72.9785 197.607 72.3745C197.498 71.717 197.463 71.0161 197.463 70.1719V66.9219C197.463 64.8505 196.578 63.0287 193.588 63.0287L193.588 63.0287ZM203.902 63.0287C202.951 63.0287 201.869 63.6426 201.415 64.9586H201.346V63.2348H199.11V72.3744H201.659V67.6944C201.659 67.4419 201.674 67.2218 201.714 67.0199C201.902 66.0396 202.652 65.4129 203.728 65.4129C204.024 65.4129 204.235 65.4449 204.464 65.4779V63.0852C204.272 63.0464 204.141 63.0286 203.902 63.0286L203.902 63.0287ZM166.578 67.9691V69.1093C166.578 69.278 166.563 69.452 166.517 69.6041C166.325 70.2374 165.669 70.7725 164.849 70.7725C164.166 70.7725 163.623 70.3845 163.623 69.5636C163.623 68.3081 165.005 67.961 166.578 67.9691H166.578ZM194.994 67.9691V69.1093C194.994 69.278 194.979 69.452 194.933 69.6041C194.742 70.2374 194.086 70.7725 193.266 70.7725C192.582 70.7725 192.039 70.3845 192.039 69.5636C192.039 68.3081 193.421 67.961 194.995 67.9691H194.994Z" fill="#2D2D2D"/>
<path d="M223.432 55.8088C222.635 55.8088 222.001 56.2541 222.001 56.7964L222.485 62.281C222.539 62.6115 222.944 62.8663 223.433 62.8663C223.923 62.8657 224.327 62.611 224.381 62.281L224.868 56.7964C224.868 56.2542 224.232 55.8088 223.433 55.8088L223.432 55.8088ZM215.539 60.2083C215.125 60.2181 214.655 60.5316 214.355 61.0504C213.955 61.7411 214.026 62.5131 214.494 62.7839L219.486 65.1084C219.798 65.2244 220.221 65.0029 220.466 64.5801C220.466 64.5801 220.466 64.58 220.466 64.5799C220.713 64.155 220.694 63.6773 220.434 63.4654L215.926 60.3034C215.809 60.2356 215.677 60.2051 215.539 60.2084L215.539 60.2083ZM231.326 60.2083C231.188 60.205 231.056 60.2355 230.939 60.3033L226.431 63.4653C226.173 63.6772 226.154 64.155 226.399 64.5798L226.399 64.5801C226.645 65.0029 227.067 65.2243 227.379 65.1083L232.373 62.7839C232.843 62.5131 232.91 61.7412 232.513 61.0504C232.212 60.5316 231.741 60.2182 231.327 60.2083L231.326 60.2083ZM219.672 67.4445C219.608 67.4436 219.545 67.4536 219.487 67.4757L214.495 69.7974C214.027 70.0694 213.956 70.8416 214.356 71.5331C214.755 72.2225 215.458 72.5503 215.927 72.2799L220.435 69.1204C220.695 68.9059 220.714 68.4283 220.467 68.0038L220.469 68.0048C220.27 67.659 219.952 67.4482 219.672 67.4444L219.672 67.4445ZM227.195 67.4445C226.915 67.4483 226.598 67.6591 226.398 68.0048L226.4 68.0039C226.155 68.4284 226.174 68.906 226.432 69.1204L230.941 72.28C231.408 72.5504 232.112 72.2226 232.513 71.5332C232.91 70.8417 232.843 70.0694 232.373 69.7975L227.38 67.4757C227.322 67.4537 227.259 67.4437 227.195 67.4446L227.195 67.4445ZM223.432 69.7176C222.943 69.7182 222.539 69.972 222.486 70.3015L222.002 75.786C222.002 76.3291 222.636 76.7736 223.433 76.7736C224.232 76.7736 224.867 76.3291 224.867 75.786L224.382 70.3015C224.327 69.972 223.924 69.7182 223.434 69.7176H223.432H223.432Z" fill="#2D2D2D"/>
</g>
<path d="M82.4655 66.9473C82.4655 70.0975 80.0011 72.4189 76.9767 72.4189C73.9522 72.4189 71.4878 70.0975 71.4878 66.9473C71.4878 63.7749 73.9522 61.4757 76.9767 61.4757C80.0011 61.4757 82.4655 63.7749 82.4655 66.9473ZM80.0627 66.9473C80.0627 64.9787 78.6344 63.6318 76.9767 63.6318C75.3189 63.6318 73.8906 64.9787 73.8906 66.9473C73.8906 68.8962 75.3189 70.2628 76.9767 70.2628C78.6344 70.2628 80.0627 68.8937 80.0627 66.9473Z" fill="#2D2D2D"/>
<path d="M94.3073 66.9473C94.3073 70.0975 91.8429 72.4189 88.8184 72.4189C85.794 72.4189 83.3296 70.0975 83.3296 66.9473C83.3296 63.7773 85.794 61.4757 88.8184 61.4757C91.8429 61.4757 94.3073 63.7749 94.3073 66.9473ZM91.9045 66.9473C91.9045 64.9787 90.4762 63.6318 88.8184 63.6318C87.1607 63.6318 85.7324 64.9787 85.7324 66.9473C85.7324 68.8962 87.1607 70.2628 88.8184 70.2628C90.4762 70.2628 91.9045 68.8937 91.9045 66.9473Z" fill="#2D2D2D"/>
<path d="M105.654 61.8063V71.6295C105.654 75.6703 103.271 77.3206 100.454 77.3206C97.8022 77.3206 96.2061 75.5469 95.6041 74.0964L97.6961 73.2256C98.0686 74.1161 98.9813 75.167 100.452 75.167C102.255 75.167 103.372 74.0544 103.372 71.96V71.1731H103.289C102.751 71.8367 101.715 72.4164 100.407 72.4164C97.6714 72.4164 95.165 70.0334 95.165 66.967C95.165 63.8785 97.6714 61.4757 100.407 61.4757C101.712 61.4757 102.748 62.0554 103.289 62.6993H103.372V61.8087H105.654V61.8063ZM103.543 66.967C103.543 65.0404 102.257 63.6318 100.622 63.6318C98.9641 63.6318 97.5752 65.0404 97.5752 66.967C97.5752 68.874 98.9641 70.2628 100.622 70.2628C102.257 70.2628 103.543 68.874 103.543 66.967Z" fill="#2D2D2D"/>
<path d="M109.416 56.0486V72.0835H107.073V56.0486H109.416Z" fill="#2D2D2D"/>
<path d="M118.549 68.7482L120.414 69.9915C119.812 70.882 118.362 72.4164 115.855 72.4164C112.747 72.4164 110.426 70.0137 110.426 66.9449C110.426 63.691 112.767 61.4733 115.587 61.4733C118.426 61.4733 119.815 63.7329 120.269 64.9541L120.518 65.5757L113.204 68.6051C113.764 69.7029 114.634 70.2628 115.855 70.2628C117.079 70.2628 117.928 69.6609 118.549 68.7482ZM112.809 66.7796L117.698 64.7493C117.429 64.066 116.62 63.5899 115.668 63.5899C114.447 63.5899 112.747 64.6679 112.809 66.7796Z" fill="#2D2D2D"/>
<path d="M62.6169 65.5239V63.2026H70.4394C70.5159 63.6072 70.5554 64.0857 70.5554 64.6038C70.5554 66.3454 70.0793 68.499 68.5449 70.0334C67.0524 71.5876 65.1455 72.4165 62.6194 72.4165C57.9372 72.4165 54 68.6026 54 63.9205C54 59.2383 57.9372 55.4244 62.6194 55.4244C65.2096 55.4244 67.0548 56.4408 68.4412 57.7655L66.8032 59.4036C65.8091 58.4711 64.4621 57.7458 62.6169 57.7458C59.1978 57.7458 56.5236 60.5013 56.5236 63.9205C56.5236 67.3396 59.1978 70.0951 62.6169 70.0951C64.8346 70.0951 66.0977 69.2046 66.9068 68.3954C67.563 67.7392 67.9947 66.8018 68.165 65.5215L62.6169 65.5239Z" fill="#2D2D2D"/>
<g clip-path="url(#clip1_902_467)">
<path fill-rule="evenodd" clip-rule="evenodd" d="M259.324 19.4004C255.122 22.5126 249.032 24.1731 243.788 24.1731C236.435 24.1731 229.816 21.4404 224.808 16.8954C224.415 16.538 224.767 16.0509 225.239 16.3293C230.644 19.4889 237.326 21.3898 244.228 21.3898C248.884 21.3898 254.005 20.422 258.713 18.4136C259.425 18.1099 260.02 18.8817 259.324 19.4004Z" fill="#2D2D2D"/>
<path fill-rule="evenodd" clip-rule="evenodd" d="M261.071 17.392C260.536 16.7025 257.52 17.0662 256.167 17.2275C255.754 17.2781 255.692 16.9175 256.063 16.6582C258.464 14.9598 262.405 15.45 262.865 16.0193C263.324 16.5918 262.745 20.5611 260.488 22.4556C260.142 22.7466 259.812 22.5916 259.966 22.2058C260.473 20.9343 261.609 18.0846 261.071 17.392Z" fill="#2D2D2D"/>
<path fill-rule="evenodd" clip-rule="evenodd" d="M256.261 4.66784V3.01685C256.261 2.76698 256.45 2.59935 256.677 2.59935H264.033C264.269 2.59935 264.457 2.77015 264.457 3.01685V4.43063C264.454 4.66784 264.256 4.9778 263.904 5.46804L260.092 10.9366C261.508 10.9018 263.003 11.1137 264.288 11.8411C264.577 12.0056 264.656 12.246 264.678 12.4832V14.2449C264.678 14.4853 264.413 14.7667 264.136 14.6213C261.873 13.4289 258.867 13.2992 256.365 14.6339C256.11 14.7731 255.843 14.4947 255.843 14.2544V12.5812C255.843 12.3124 255.846 11.8538 256.113 11.4458L260.529 5.08217H256.686C256.45 5.08217 256.261 4.91454 256.261 4.66784Z" fill="#2D2D2D"/>
<path fill-rule="evenodd" clip-rule="evenodd" d="M229.428 14.9691H227.19C226.976 14.9533 226.806 14.792 226.79 14.5864V3.04526C226.79 2.81437 226.982 2.63092 227.222 2.63092H229.308C229.526 2.64041 229.699 2.80804 229.714 3.01679V4.52546H229.755C230.3 3.06739 231.323 2.38739 232.701 2.38739C234.102 2.38739 234.977 3.06739 235.607 4.52546C236.148 3.06739 237.379 2.38739 238.698 2.38739C239.636 2.38739 240.662 2.77641 241.288 3.64935C241.996 4.62034 241.851 6.03096 241.851 7.26763L241.848 14.5516C241.848 14.7825 241.656 14.9691 241.417 14.9691H239.182C238.959 14.9533 238.779 14.773 238.779 14.5516V8.43471C238.779 7.94763 238.823 6.73311 238.716 6.27134C238.55 5.49645 238.049 5.27821 237.401 5.27821C236.859 5.27821 236.293 5.64193 236.063 6.22389C235.833 6.80585 235.855 7.78 235.855 8.43471V14.5516C235.855 14.7825 235.663 14.9691 235.424 14.9691H233.189C232.963 14.9533 232.786 14.773 232.786 14.5516L232.783 8.43471C232.783 7.14744 232.994 5.25291 231.405 5.25291C229.796 5.25291 229.859 7.09999 229.859 8.43471V14.5516C229.859 14.7825 229.667 14.9691 229.428 14.9691" fill="#2D2D2D"/>
<path fill-rule="evenodd" clip-rule="evenodd" d="M270.79 2.38739C274.111 2.38739 275.908 5.25291 275.908 8.89648C275.908 12.4167 273.922 15.2095 270.79 15.2095C267.53 15.2095 265.754 12.344 265.754 8.77313C265.754 5.18016 267.552 2.38739 270.79 2.38739ZM270.809 4.74369C269.16 4.74369 269.056 7.00195 269.056 8.40941C269.056 9.82003 269.034 12.831 270.79 12.831C272.525 12.831 272.607 10.402 272.607 8.92178C272.607 7.94764 272.566 6.78372 272.273 5.86017C272.021 5.05681 271.521 4.74369 270.809 4.74369Z" fill="#2D2D2D"/>
<path fill-rule="evenodd" clip-rule="evenodd" d="M280.214 14.9691H277.985C277.762 14.9533 277.582 14.773 277.582 14.5516L277.579 3.0073C277.598 2.79539 277.784 2.63092 278.011 2.63092H280.085C280.28 2.64041 280.44 2.77325 280.485 2.95353V4.71839H280.525C281.152 3.14014 282.03 2.38739 283.575 2.38739C284.579 2.38739 285.558 2.75111 286.188 3.7474C286.773 4.67095 286.773 6.22389 286.773 7.34037V14.6054C286.748 14.8078 286.562 14.9691 286.342 14.9691H284.098C283.893 14.9533 283.723 14.8015 283.701 14.6054V8.33666C283.701 7.07469 283.846 5.2276 282.301 5.2276C281.756 5.2276 281.256 5.59449 281.007 6.15115C280.692 6.85646 280.651 7.55861 280.651 8.33666V14.5516C280.648 14.7825 280.453 14.9691 280.214 14.9691" fill="#2D2D2D"/>
<path fill-rule="evenodd" clip-rule="evenodd" d="M250.397 9.4563C250.397 10.3324 250.419 11.063 249.979 11.8411C249.623 12.4736 249.056 12.8627 248.43 12.8627C247.571 12.8627 247.067 12.2048 247.067 11.2338C247.067 9.31714 248.776 8.96923 250.397 8.96923V9.4563ZM252.654 14.9375C252.506 15.0703 252.292 15.0798 252.125 14.9912C251.383 14.3713 251.247 14.0835 250.841 13.4921C249.614 14.7509 248.742 15.1272 247.152 15.1272C245.267 15.1272 243.803 13.9602 243.803 11.6228C243.803 9.79789 244.785 8.5549 246.189 7.94763C247.404 7.40995 249.101 7.31507 250.397 7.16642V6.87544C250.397 6.34092 250.438 5.70835 250.123 5.24658C249.853 4.83225 249.33 4.66146 248.868 4.66146C248.015 4.66146 247.256 5.10109 247.07 6.01198C247.033 6.2144 246.885 6.41366 246.68 6.42315L244.511 6.1891C244.329 6.14799 244.124 5.99933 244.178 5.71784C244.675 3.07372 247.055 2.27669 249.182 2.27669C250.271 2.27669 251.694 2.56767 252.553 3.39633C253.642 4.41792 253.539 5.7811 253.539 7.26446V10.7689C253.539 11.8221 253.973 12.2839 254.382 12.8532C254.524 13.0556 254.555 13.2991 254.373 13.4509C253.916 13.8337 253.104 14.5453 252.657 14.9438L252.654 14.9375" fill="#2D2D2D"/>
<path fill-rule="evenodd" clip-rule="evenodd" d="M221.059 9.45656C221.059 10.3327 221.081 11.0633 220.64 11.8413C220.285 12.4739 219.721 12.8629 219.092 12.8629C218.232 12.8629 217.732 12.2051 217.732 11.2341C217.732 9.3174 219.441 8.96949 221.059 8.96949V9.45656ZM223.316 14.9377C223.168 15.0706 222.954 15.0801 222.787 14.9915C222.044 14.3716 221.912 14.0838 221.503 13.4923C220.275 14.7511 219.406 15.1275 217.814 15.1275C215.932 15.1275 214.465 13.9604 214.465 11.6231C214.465 9.79815 215.45 8.55516 216.851 7.9479C218.066 7.41022 219.762 7.31533 221.059 7.16668V6.8757C221.059 6.34118 221.1 5.70862 220.788 5.24685C220.514 4.83251 219.992 4.66172 219.532 4.66172C218.679 4.66172 217.918 5.10135 217.732 6.01225C217.694 6.21467 217.546 6.41393 217.345 6.42342L215.173 6.18936C214.99 6.14825 214.789 5.9996 214.839 5.71811C215.34 3.07398 217.716 2.27695 219.844 2.27695C220.933 2.27695 222.356 2.56793 223.215 3.39659C224.304 4.41818 224.2 5.78136 224.2 7.26473V10.7691C224.2 11.8224 224.635 12.2841 225.044 12.8534C225.189 13.0559 225.22 13.2994 225.037 13.4512C224.581 13.8339 223.769 14.5456 223.322 14.9441L223.316 14.9377" fill="#2D2D2D"/>
</g>
<g clip-path="url(#clip2_902_467)">
<path d="M179.889 12.9143C179.827 12.8487 179.754 12.7948 179.673 12.7553C179.092 12.4081 178.522 12.0436 177.926 11.7267C177.512 11.5125 177.082 11.3317 176.639 11.1859C176.098 10.9998 175.786 10.5856 175.858 10.0199C175.874 9.93671 175.869 9.85076 175.843 9.77014C175.817 9.68952 175.771 9.61689 175.709 9.5591C175.507 9.35792 175.518 9.31898 175.809 9.15241C175.755 9.0366 175.71 8.91649 175.675 8.79331C175.66 8.7023 175.669 8.60877 175.703 8.52291C175.794 8.29144 175.913 8.07187 176 7.83933C176.066 7.65978 176 7.55162 175.783 7.54837C175.178 7.52875 174.584 7.3743 174.045 7.09625C173.756 6.97178 173.473 6.83205 173.198 6.67767C172.744 6.38996 172.291 6.43214 171.831 6.62251C171.737 6.66144 171.675 6.77718 171.599 6.8583L171.64 6.93509L170.883 6.8875C170.713 6.87669 170.521 6.81071 170.378 6.86695C170.12 6.96646 169.884 6.92752 169.638 6.88101L168.569 6.67659C168.657 6.93726 168.513 6.92103 168.38 6.89291C168.163 6.85614 167.939 6.79989 167.716 6.76961C167.556 6.74689 167.391 6.75122 167.163 6.74148L167.394 7.0465C166.975 7.21793 166.515 7.2602 166.071 7.16788C165.628 7.07557 165.223 6.85288 164.907 6.52841C164.258 5.82535 164.079 4.946 164.001 4.04069C163.903 2.90391 164.186 1.84392 164.704 0.838016C164.758 0.716314 164.805 0.591318 164.843 0.463777L164.756 0.401043C164.62 0.475083 164.489 0.560088 164.366 0.655224C163.776 1.16993 163.384 1.87398 163.256 2.64648C163.185 3.07913 163.202 3.52584 163.161 3.96389C163.153 4.05042 163.061 4.13046 163.008 4.21266C162.941 4.14019 162.827 4.07205 162.818 3.99634C162.782 3.68483 162.777 3.369 162.767 3.05533C162.761 2.87146 162.767 2.68866 162.767 2.43773C162.638 2.52211 162.528 2.63346 162.446 2.76414C162.364 2.89482 162.311 3.04174 162.29 3.19486C162.11 4.09909 162.242 4.94924 162.774 5.72152C162.839 5.83187 162.897 5.94641 162.947 6.06439L162.839 6.12929C162.689 5.97005 162.552 5.79975 162.428 5.61985C162.267 5.35052 162.15 5.05416 161.995 4.77835C161.928 4.68309 161.851 4.59597 161.764 4.51876C161.721 4.63882 161.676 4.7578 161.639 4.87894C161.634 4.91512 161.637 4.95198 161.647 4.9871C161.748 5.73775 162.095 6.43363 162.634 6.96538C163.269 7.60029 164.028 8.03942 164.844 8.39636C164.932 8.4353 165.068 8.52291 165.067 8.58564C165.078 8.97109 165.05 9.35671 164.984 9.73648C164.829 10.4222 164.149 10.6472 163.571 10.2394C163.214 9.98634 163.093 9.97985 162.784 10.3097C162.474 10.6389 162.078 10.875 161.641 10.9912C161.243 11.0993 160.849 11.2313 160.452 11.3632C160.247 11.4291 160.047 11.5108 159.855 11.6077C159.78 11.6466 159.739 11.7515 159.683 11.824L159.885 11.9657L159.56 12.1896L159.785 12.3702C159.762 12.4014 159.742 12.4352 159.727 12.4708C159.703 12.5465 159.686 12.6244 159.665 12.7012C159.75 12.7163 159.843 12.7618 159.915 12.7401C160.086 12.6831 160.252 12.6126 160.412 12.5292C161.072 12.2047 161.742 11.8802 162.389 11.5309C163.036 11.1815 163.626 11.2399 164.255 11.5925C164.608 11.7905 165.022 11.8911 165.418 12.0014C165.753 12.0944 166.06 11.983 166.327 11.7678C166.565 11.5752 166.798 11.3773 167.038 11.1848C167.22 11.0275 167.438 10.9187 167.673 10.8684C167.909 10.8181 168.153 10.828 168.383 10.8971C168.634 10.9775 168.88 11.0732 169.12 11.1837C169.593 11.3816 170.053 11.6163 170.538 11.7829C171.282 12.0537 172.093 12.0772 172.851 11.85C173.461 11.6585 173.962 11.7083 174.365 12.2361C174.561 12.4892 174.798 12.5606 175.129 12.4622C175.872 12.2372 176.606 12.2545 177.299 12.6579C177.61 12.8396 177.922 13.0224 178.244 13.1814C178.545 13.326 178.854 13.4534 179.169 13.5632C179.273 13.5875 179.381 13.5798 179.48 13.5412C179.58 13.5025 179.665 13.4348 179.725 13.3469L180.06 13.216C180.012 13.1109 179.955 13.01 179.889 12.9143Z" fill="#2D2D2D"/>
<path d="M187.297 16.5496C187.108 16.4153 186.902 16.3041 186.686 16.2186C186.382 16.1105 186.06 16.0596 185.751 15.9677C184.992 15.744 184.185 15.744 183.426 15.9677C182.117 16.3517 181.047 17.1045 180.457 18.4024C180.388 18.5549 180.396 18.7474 180.311 18.888C179.987 19.4397 180.042 20.0508 179.987 20.9042C180.033 21.1876 180.121 21.7154 180.21 22.2432C180.357 23.1139 180.884 23.7477 181.56 24.241C182.254 24.7461 182.975 25.1852 183.896 25.2588C184.557 25.3128 185.188 25.4286 185.866 25.2923C186.602 25.1452 187.184 24.7893 187.713 24.3059C187.911 24.1252 188.057 23.8884 188.248 23.6991C188.959 22.9982 189.286 22.121 189.418 21.1594C189.55 20.1979 189.373 19.312 189.012 18.4262C188.669 17.5717 188.026 17.0244 187.297 16.5496ZM186.367 22.4985C185.751 22.9699 184.974 23.1801 184.204 23.0836C183.209 22.9614 182.703 22.3817 182.365 21.4753C182.071 20.6889 182.223 19.9967 182.497 19.2818C182.55 19.1477 182.633 19.0272 182.738 18.9291C183.163 18.5365 183.568 18.1817 184.224 18.1082C184.751 18.0487 185.233 18.1471 185.702 18.251C186.396 18.4046 186.777 18.9865 186.992 19.6268C187.122 20.0118 187.13 20.438 187.19 20.8317C187.125 21.5131 186.866 22.1329 186.367 22.5028V22.4985Z" fill="#2D2D2D"/>
<path d="M171.667 4.17381C171.615 4.23762 171.599 4.4215 171.642 4.45503C171.83 4.58743 172.026 4.70808 172.229 4.81629C172.289 4.90822 172.36 5.03802 172.446 5.04451C172.751 5.06939 173.059 5.05424 173.389 5.05424L172.875 5.66752L173.082 5.7573L172.746 6.02013C172.828 6.06772 172.869 6.098 172.914 6.11856C173.283 6.28512 173.658 6.43763 174.019 6.61826C174.587 6.89446 175.196 7.07708 175.821 7.15907C176.072 7.19585 176.241 7.12879 176.309 6.86379C176.347 6.72466 176.399 6.58982 176.465 6.46143C176.612 6.14447 176.821 5.85984 177.079 5.62405C177.336 5.38826 177.639 5.20598 177.967 5.08777C178.732 4.80763 179.093 4.27981 179.014 3.5032C178.991 3.26633 178.871 3.156 178.647 3.17223C178.395 3.186 178.145 3.21671 177.897 3.26417C177.474 3.3507 177.129 3.27606 176.827 2.93968C176.489 2.55571 176.07 2.30153 175.519 2.38265C175.185 2.42503 174.848 2.35131 174.562 2.1739C174.36 2.05924 174.143 1.92729 173.922 1.90349C173.208 1.80489 172.484 1.98289 171.897 2.40104C171.81 2.47931 171.73 2.56509 171.658 2.65738C171.822 2.7093 171.931 2.74066 172.036 2.78068C172.09 2.80123 172.182 2.84125 172.181 2.8683C172.171 3.10301 172.359 3.08462 172.494 3.12247C172.603 3.15384 172.711 3.17223 172.813 3.19711L172.824 3.27174C172.577 3.44696 172.326 3.61677 172.083 3.79957C171.931 3.90815 171.791 4.0337 171.667 4.17381ZM178.783 3.49455C178.783 3.55404 178.82 3.67843 178.774 3.72602C178.689 3.8209 178.575 3.88482 178.45 3.90773C178.357 3.92474 178.261 3.9079 178.18 3.86026C178.098 3.81262 178.037 3.73735 178.006 3.64814L178.783 3.49455Z" fill="#2D2D2D"/>
<path d="M161.834 13.7678C161.959 13.7503 162.082 13.718 162.199 13.6715C162.548 13.4833 162.892 13.2875 163.226 13.0766C163.68 12.79 164.159 12.6007 164.703 12.644C164.964 12.6707 165.223 12.7115 165.479 12.7662C166.207 12.9111 166.824 12.7467 167.339 12.1843C167.622 11.8964 167.923 11.6266 168.24 11.3763C168.387 11.2519 168.355 11.1394 168.207 11.0994C168.04 11.0437 167.86 11.0377 167.69 11.0821C167.489 11.16 167.308 11.2812 167.16 11.4369C166.449 12.1648 165.645 12.5012 164.62 12.1778C164.284 12.0737 163.938 12.008 163.587 11.982C163.356 11.9551 163.123 11.9926 162.912 12.0902C162.395 12.3703 161.885 12.6829 161.774 13.3557L161.951 13.4238L161.798 13.6856L161.834 13.7678Z" fill="#2D2D2D"/>
<path d="M177.09 9.91501C176.839 9.89879 176.59 9.8512 176.341 9.83173C176.169 9.81875 176.096 9.91285 176.117 10.0848C176.132 10.2804 176.216 10.4644 176.353 10.6046C176.49 10.7448 176.672 10.8322 176.867 10.8517C177.126 10.8809 177.388 10.8755 177.647 10.8993C178.281 10.9566 178.916 11.0139 179.549 11.0897C179.746 11.1134 179.932 11.1838 179.886 10.8787L180.3 10.9501L180.205 10.6624L180.626 10.6224C180.6 10.5095 180.538 10.408 180.45 10.3323C180.362 10.2567 180.253 10.211 180.137 10.2016C179.517 10.1054 178.893 10.0351 178.269 9.97558C177.878 9.93773 177.485 9.94205 177.09 9.91501Z" fill="#2D2D2D"/>
<path d="M163.005 21.7435C163.704 21.6689 164.404 21.6073 165.104 21.5467C166.271 21.445 167.438 21.352 168.604 21.2482C168.944 21.2179 169.023 21.14 169.051 20.7928C169.123 19.9922 169.027 19.1854 168.769 18.424C168.436 17.4625 167.768 16.7162 166.902 16.1959C166.012 15.6605 165.019 15.5015 163.982 15.6443C163.2 15.7428 162.467 16.0762 161.878 16.6004C161.548 16.8946 161.279 17.2581 160.998 17.602C160.502 18.2077 160.293 18.9346 160.195 19.6895C160.088 20.5033 160.14 21.3302 160.348 22.1243C160.625 23.194 161.194 24.0712 162.089 24.6715C162.245 24.7763 162.408 24.8706 162.577 24.9538C162.668 24.9992 162.76 25.0403 162.853 25.0782C163.516 25.3457 164.231 25.4603 164.945 25.4135C165.005 25.4135 165.067 25.42 165.126 25.4135C165.147 25.4124 165.167 25.4102 165.187 25.407C165.788 25.3118 166.419 25.2988 166.984 25.0944C167.927 24.7591 168.511 23.9879 168.988 23.1367C169.072 22.9885 169.051 22.8846 168.907 22.8003C168.626 22.638 168.355 22.4574 168.064 22.3168C167.427 22.0085 167.415 22.0096 166.933 22.5331C166.614 22.8706 166.186 23.0829 165.724 23.1313C165.436 23.1709 165.15 23.2026 164.866 23.2264C164 23.2989 163.286 23.0253 162.762 22.3179C162.512 21.975 162.587 21.7836 163.005 21.7435ZM162.474 19.3694C162.64 18.6815 163.123 18.3094 163.744 18.0552C164.342 17.8073 165.011 17.7949 165.617 18.0206C166.287 18.2532 166.753 18.6901 166.897 19.4775C166.452 19.5046 166.042 19.5327 165.631 19.5554C164.671 19.6073 163.71 19.6575 162.749 19.7058C162.474 19.7209 162.409 19.6409 162.474 19.3694Z" fill="#2D2D2D"/>
<path d="M158.947 21.8377C158.799 21.3672 158.566 20.9724 158.156 20.6793C158.048 20.6025 157.922 20.5116 158.073 20.3548C158.313 20.1118 158.5 19.8221 158.622 19.5037C158.745 19.1853 158.801 18.8451 158.787 18.5041C158.787 18.0131 158.695 17.5977 158.371 17.2386C157.613 16.4004 156.735 15.8228 155.544 15.8477C154.895 15.8617 154.236 15.8131 153.581 15.8001C153.142 15.7914 152.702 15.8001 152.263 15.7925C152.084 15.7925 152.017 15.8531 152.015 16.0478C152.006 17.2257 151.98 18.4046 151.961 19.5836C151.945 20.5722 151.932 21.5597 151.912 22.5483C151.912 22.7278 151.865 22.9063 151.871 23.0891C151.888 23.591 151.922 24.0918 151.948 24.5936H151.92C151.92 24.7559 151.931 24.9181 151.92 25.0804C151.9 25.3021 151.974 25.3962 152.207 25.3648C152.376 25.3417 152.546 25.3377 152.716 25.3529C153.929 25.4611 155.142 25.394 156.35 25.2934C157.67 25.1853 158.548 24.4844 158.97 23.2221C159.112 22.7704 159.104 22.2846 158.947 21.8377ZM154.181 18.3397C154.181 18.1234 154.267 18.0152 154.513 18.0488C154.721 18.0652 154.93 18.067 155.139 18.0542C155.376 18.0769 155.698 18.1007 156.018 18.1418C156.225 18.1677 156.393 18.2943 156.397 18.5009C156.4 18.7651 156.363 19.0284 156.288 19.2818C156.258 19.3394 156.214 19.389 156.161 19.4266C156.107 19.4642 156.046 19.4887 155.981 19.4981C155.456 19.5565 154.926 19.5825 154.397 19.6182C154.368 19.6241 154.338 19.623 154.31 19.615C154.282 19.607 154.257 19.5923 154.235 19.5723C154.214 19.5522 154.198 19.5273 154.188 19.4997C154.179 19.4722 154.176 19.4427 154.18 19.4138C154.18 19.0579 154.178 18.6988 154.181 18.3397ZM155.904 23.1432C155.597 23.1973 155.28 23.2005 154.968 23.2265V23.181C154.76 23.181 154.554 23.181 154.347 23.181C154.205 23.181 154.161 23.1172 154.166 22.982C154.18 22.6132 154.195 22.2444 154.191 21.8766C154.185 21.8433 154.187 21.8092 154.196 21.7766C154.205 21.744 154.221 21.7139 154.243 21.6882C154.265 21.6626 154.293 21.6422 154.323 21.6283C154.354 21.6145 154.388 21.6077 154.422 21.6084C154.976 21.5597 155.532 21.5067 156.088 21.4829C156.34 21.4721 156.579 21.8182 156.615 22.1795C156.666 22.7084 156.427 23.0523 155.904 23.1432Z" fill="#2D2D2D"/>
<path d="M178.904 22.5667C178.495 22.3677 178.059 22.2206 177.632 22.0594C177.416 21.975 177.249 22.0594 177.085 22.2292C176.847 22.4851 176.583 22.714 176.295 22.9117C175.788 23.2427 175.203 23.2578 174.626 23.1789C174.193 23.1205 173.737 23.0848 173.391 22.7754C172.535 22.0107 172.324 21.0449 172.575 19.9632C172.627 19.7353 172.713 19.5164 172.831 19.3143C172.969 19.0785 173.119 18.8135 173.336 18.6653C174.269 18.0282 175.619 17.8963 176.589 18.5755C176.696 18.6578 176.813 18.7271 176.936 18.7821C176.979 18.801 177.025 18.8107 177.072 18.8107C177.119 18.8107 177.165 18.801 177.208 18.7821C177.655 18.449 178.095 18.1061 178.522 17.7481C178.551 17.7061 178.569 17.6575 178.574 17.6068C178.579 17.5561 178.571 17.5049 178.55 17.4582C178.317 17.1878 178.1 16.8579 177.798 16.7011C176.894 16.2273 175.975 15.7428 174.906 15.8542C173.871 15.8401 172.984 16.2306 172.138 16.7562C171.336 17.2447 170.76 18.031 170.535 18.9433C170.424 19.3419 170.339 19.7477 170.283 20.1579C170.203 20.8069 170.187 21.4505 170.409 22.08C170.585 22.5908 170.833 23.0738 171.145 23.5142C171.447 23.9339 171.76 24.3276 172.195 24.6153C173.345 25.3724 174.6 25.5552 175.944 25.3335C177.315 25.1063 178.37 24.4303 179.08 23.2308C179.285 22.8912 179.269 22.7452 178.904 22.5667Z" fill="#2D2D2D"/>
</g>
<g clip-path="url(#clip3_902_467)">
<path d="M126.485 19.3409C126.154 20.1059 125.762 20.8101 125.307 21.4575C124.688 22.3401 124.182 22.951 123.791 23.2902C123.185 23.8471 122.537 24.1322 121.842 24.1485C121.343 24.1485 120.742 24.0066 120.042 23.7187C119.339 23.4321 118.694 23.2902 118.104 23.2902C117.485 23.2902 116.821 23.4321 116.111 23.7187C115.399 24.0066 114.826 24.1566 114.388 24.1714C113.722 24.1998 113.058 23.9065 112.395 23.2902C111.972 22.9212 111.443 22.2887 110.809 21.3926C110.129 20.4357 109.57 19.326 109.132 18.061C108.663 16.6945 108.428 15.3713 108.428 14.0903C108.428 12.6229 108.745 11.3573 109.38 10.2967C109.879 9.44478 110.543 8.77277 111.374 8.27944C112.205 7.78612 113.103 7.53472 114.07 7.51864C114.599 7.51864 115.293 7.68232 116.156 8.00399C117.015 8.32675 117.568 8.49043 117.81 8.49043C117.991 8.49043 118.604 8.29904 119.644 7.91749C120.627 7.56365 121.457 7.41714 122.137 7.47485C123.979 7.62352 125.363 8.34973 126.283 9.65805C124.636 10.6563 123.821 12.0545 123.837 13.8482C123.852 15.2453 124.359 16.408 125.355 17.3311C125.806 17.7596 126.31 18.0907 126.871 18.3259C126.75 18.6786 126.621 19.0165 126.485 19.3409ZM122.26 2.71513C122.26 3.81019 121.86 4.83265 121.062 5.77902C120.1 6.90408 118.936 7.55419 117.674 7.4516C117.658 7.32023 117.648 7.18196 117.648 7.03667C117.648 5.98541 118.106 4.86035 118.919 3.94047C119.324 3.47472 119.84 3.08745 120.466 2.77852C121.091 2.4742 121.681 2.3059 122.237 2.27708C122.253 2.42347 122.26 2.56987 122.26 2.71511V2.71513Z" fill="#2D2D2D"/>
</g>
<path fill-rule="evenodd" clip-rule="evenodd" d="M73.6226 8.73737C73.6226 8.34585 73.3074 8.0288 72.9154 8.0288H71.8675C71.4755 8.0288 71.1603 8.34719 71.1603 8.73871V19.6981C71.1603 20.0901 71.4764 20.4071 71.8675 20.4071H72.9163C73.3074 20.4071 73.6226 20.0883 73.6226 19.6972V8.73737ZM74.9586 9.02856V9.54984C74.9586 9.76477 75.1348 9.93913 75.3506 9.93913H82.5795C82.9094 9.93913 83.177 9.67291 83.177 9.34338V8.46135C83.177 8.13137 82.9063 7.83305 82.5795 7.8656C82.5795 7.8656 75.5901 8.55142 75.3662 8.5764C75.2537 8.5863 75.1491 8.63844 75.0735 8.72233C74.9979 8.80622 74.9568 8.91563 74.9586 9.02856ZM69.1059 20.4076C67.3075 20.4076 66.1753 19.0435 66.1753 17.5256L66.1744 13.1404H65.6598C65.5947 13.1404 65.5302 13.1277 65.47 13.1028C65.4098 13.0779 65.3551 13.0415 65.309 12.9955C65.263 12.9495 65.2264 12.8948 65.2014 12.8347C65.1764 12.7746 65.1635 12.7101 65.1635 12.645V11.911C65.1635 11.6367 65.3864 11.416 65.6616 11.416L66.1744 11.4169L66.1735 8.72087C66.1735 8.33917 66.4807 8.02969 66.8633 8.02969H67.8858C68.2667 8.02969 68.5757 8.34139 68.5757 8.7231V11.4174L70.1685 11.4169C70.4428 11.4169 70.6666 11.6372 70.6666 11.9119V12.6459C70.6666 12.9206 70.4437 13.1413 70.1703 13.1413L68.5757 13.1408L68.5775 17.1969C68.5775 17.9929 69.06 18.5365 69.9215 18.5365H70.0669C70.3647 18.5365 70.6069 18.7759 70.6069 19.0738V19.8698C70.6069 20.1685 70.3656 20.408 70.0678 20.408H69.1059V20.4076ZM52.2643 11.1007C49.3569 11.1007 47.7266 13.3758 47.7266 15.7735C47.7266 18.3287 49.4728 20.5774 52.2834 20.5774C54.2072 20.5774 56.1032 19.5639 56.4613 17.9001C56.5099 17.6754 56.3587 17.3811 56.0426 17.3793L54.6674 17.3802C54.4181 17.3802 54.2143 17.4997 54.0917 17.6799C53.6979 18.2564 53.1222 18.5628 52.2705 18.5628C51.0661 18.5628 50.2318 17.6143 50.1689 16.5624H56.0136C56.5518 16.5624 56.7931 16.2699 56.7931 15.7731C56.7931 13.436 55.4085 11.1007 52.2643 11.1007ZM52.2643 12.9772C53.3372 12.9772 54.2638 13.7406 54.3579 14.7738H50.1863C50.2804 13.7406 51.1914 12.9772 52.2643 12.9772ZM78.8997 11.1007C75.9918 11.1007 74.3611 13.3758 74.3611 15.7735C74.3611 18.3287 76.1073 20.5774 78.918 20.5774C80.8417 20.5774 82.7378 19.5639 83.0958 17.9001C83.1444 17.6754 82.9933 17.3811 82.6771 17.3793L81.3028 17.3802C81.0526 17.3802 80.8488 17.4997 80.7262 17.6799C80.3324 18.2564 79.7568 18.5628 78.905 18.5628C77.7006 18.5628 76.8663 17.6143 76.8034 16.5624H82.6481C83.1864 16.5624 83.4276 16.2699 83.4276 15.7731C83.4276 13.436 82.0426 11.1007 78.8997 11.1007ZM78.8997 12.9772C79.9717 12.9772 80.8992 13.7406 80.9924 14.7738H76.8208C76.9144 13.7406 77.8255 12.9772 78.8997 12.9772Z" fill="#2D2D2D"/>
<path fill-rule="evenodd" clip-rule="evenodd" d="M64.2083 8.1514H45.2748C44.8445 8.1514 44.4971 8.501 44.4971 8.93132L44.5617 16.3671C44.5617 16.3671 40.4824 8.99732 40.2697 8.62185C40.0695 8.26823 39.6401 7.94226 39.0452 7.94226H37.4885C37.0577 7.94226 36.7095 8.29187 36.7095 8.72218L36.7104 19.6273C36.7104 20.0576 37.0582 20.4067 37.4889 20.4067H38.4874C38.6942 20.4063 38.8923 20.3237 39.0383 20.1772C39.1843 20.0307 39.2662 19.8323 39.266 19.6255L39.2031 11.981C39.2031 11.981 43.3221 19.4235 43.4982 19.7169C43.7359 20.1133 44.1386 20.4067 44.7209 20.4067H46.151C46.5822 20.4067 46.9296 20.0576 46.9296 19.6273L46.9287 9.99976H64.2092C64.2789 9.99993 64.3481 9.98634 64.4126 9.95975C64.4772 9.93316 64.5358 9.8941 64.5852 9.84481C64.6347 9.79551 64.6739 9.73695 64.7006 9.67248C64.7274 9.60802 64.7411 9.5389 64.7411 9.46911V8.68205C64.7408 8.54104 64.6845 8.40593 64.5845 8.30643C64.4846 8.20692 64.3493 8.15116 64.2083 8.1514Z" fill="#2D2D2D"/>
<path fill-rule="evenodd" clip-rule="evenodd" d="M61.1436 12.8862C61.9667 12.8862 62.5826 13.185 62.8046 13.7009C62.9108 13.9493 63.1172 13.997 63.4004 13.997H64.5326C64.7208 13.997 64.9339 13.8361 64.9339 13.5912C64.9339 12.2749 63.3652 11.0999 61.1427 11.0999C58.8435 11.0999 57.3341 12.1955 57.3341 13.9395C57.3341 15.2746 58.3878 16.0688 59.6845 16.4077C60.2758 16.5629 61.2854 16.8117 61.7763 16.9406C62.3061 17.0797 62.7797 17.2411 62.7797 17.6955C62.7797 18.4112 62.0238 18.6552 61.2006 18.6552C60.4194 18.6552 59.6417 18.306 59.4187 17.7495C59.289 17.4262 59.0633 17.3794 58.7204 17.3794H57.569C57.3679 17.3794 57.137 17.5519 57.137 17.8141V17.9622C57.137 19.2362 58.8457 20.57 61.2024 20.57C62.8737 20.57 65.2028 19.8757 65.2028 17.634C65.2028 16.3355 64.3346 15.4365 62.921 15.078C62.3681 14.9379 61.0397 14.5999 60.7507 14.525C60.2352 14.3917 59.7554 14.2236 59.7554 13.7821C59.7554 13.1137 60.373 12.8862 61.1436 12.8862ZM19.2322 5.63194C19.3328 5.63194 19.4294 5.59196 19.5005 5.5208C19.5717 5.44963 19.6117 5.35311 19.6117 5.25246C19.6117 5.15182 19.5717 5.0553 19.5005 4.98413C19.4294 4.91296 19.3328 4.87298 19.2322 4.87298C19.1315 4.87298 19.035 4.91296 18.9639 4.98413C18.8927 5.0553 18.8527 5.15182 18.8527 5.25246C18.8527 5.35311 18.8927 5.44963 18.9639 5.5208C19.035 5.59196 19.1315 5.63194 19.2322 5.63194ZM14.1362 4.95994C14.2209 4.95994 14.3021 4.9263 14.3619 4.86642C14.4218 4.80654 14.4555 4.72533 14.4555 4.64065C14.4555 4.55598 14.4218 4.47477 14.3619 4.41489C14.3021 4.35501 14.2209 4.32137 14.1362 4.32137C14.0515 4.32137 13.9703 4.35501 13.9104 4.41489C13.8505 4.47477 13.8169 4.55598 13.8169 4.64065C13.8169 4.72533 13.8505 4.80654 13.9104 4.86642C13.9703 4.9263 14.0515 4.95994 14.1362 4.95994ZM10.316 12.7672L10.1603 12.6004C10.5938 12.1977 11.0526 11.5556 11.1271 11.1788C11.1962 10.8283 11.7001 10.884 11.6042 11.2653C11.4825 11.7527 10.8859 12.3413 10.316 12.7672ZM7.08258 5.09282C6.28482 5.43797 6.16799 6.25579 6.72763 6.74675C7.40231 7.33805 8.51488 6.82301 8.40786 5.91778C9.31264 5.96416 9.89635 5.0295 9.75232 4.3731C10.155 4.0284 10.1951 3.29174 9.71219 3.00233C9.19447 2.69241 8.70708 2.81103 8.39672 3.40901C7.56774 3.34881 6.77356 4.00075 7.08258 5.09282L6.69864 4.92515C6.19252 3.86653 7.07901 2.78517 8.16617 3.03444C8.24494 2.86389 8.3596 2.71236 8.50232 2.59021C8.64504 2.46807 8.81246 2.37818 8.99312 2.32669C9.17378 2.27521 9.36343 2.26334 9.5491 2.2919C9.73478 2.32047 9.91209 2.38879 10.0689 2.49219C10.7668 2.91493 10.9144 4.00566 10.1724 4.53452C10.5224 5.55257 9.82456 6.38422 8.76282 6.28924C8.6384 7.59847 7.4032 7.76748 6.60544 7.14586C6.15506 6.79492 5.9709 6.30841 5.88394 5.94142C5.79253 5.55302 5.79253 5.2052 5.40903 4.8052C5.12052 4.50331 4.6037 4.51357 4.6037 4.51357C4.6037 3.56241 3.71408 2.69197 2.60953 3.11337C2.21801 2.77625 1.73418 2.7428 1.3877 3.15974C1.18614 3.40188 1.07511 4.03821 1.69628 4.32985C1.66417 5.19672 2.32503 5.75011 3.29135 5.67342C3.32925 6.13406 3.83983 6.56214 4.29244 6.62323L4.28843 6.85467C3.80549 6.80829 3.54418 6.97685 3.22223 7.37595C2.08646 7.32244 1.29094 7.82767 1.32394 8.64238C0.525734 8.79399 0.37635 9.62966 0.828961 10.0747C1.28157 10.5197 1.94511 10.3454 2.17119 9.81382C2.97652 9.96722 3.68777 9.39019 3.72032 8.72443C4.47259 8.72443 4.80169 8.427 4.92476 7.73537L5.20881 7.75856C5.29265 8.50325 4.94795 9.21004 4.05031 9.12576C4.02712 10.0149 3.16426 10.5121 2.35937 10.2049C1.98345 10.9108 1.12238 11.1931 0.399537 10.5041C-0.298777 9.83879 -0.0437095 8.69946 0.869094 8.42343C0.890052 7.55165 1.53396 6.72357 2.78478 7.04285C2.78478 7.04285 2.94576 6.65356 3.33728 6.63037C3.07641 6.52335 2.87887 6.37931 2.82491 6.11087C1.88134 6.31198 1.08002 5.44332 1.2945 4.56886C0.443238 4.12071 0.429414 3.2797 0.851703 2.77981C1.29183 2.25942 2.02493 2.14437 2.68088 2.70535C3.79167 2.08997 5.04739 2.84358 4.97069 4.10911C5.74749 4.05738 6.21927 4.73653 6.13276 5.44376C6.26074 5.13206 6.41057 4.98758 6.69775 4.92515L7.08258 5.09282Z" fill="#2D2D2D"/>
<path fill-rule="evenodd" clip-rule="evenodd" d="M8.99111 3.5741L9.17884 3.70832C8.81452 4.47709 8.16971 5.29358 7.61766 5.74262L7.40674 5.58387C7.79826 4.94709 8.63838 3.89605 8.99111 3.5741ZM3.55619 7.79654L3.68283 7.98427C3.22264 8.45606 2.37093 9.08526 1.91876 9.30376L1.74218 9.11201C2.17963 8.64023 3.01529 8.02263 3.55619 7.79654ZM4.65673 5.51208L4.43466 5.78677C3.83222 5.39168 2.64339 4.32949 2.37539 3.94644L2.56268 3.75514C3.13836 4.04677 4.26164 5.04832 4.65673 5.51208ZM3.53925 15.5917C3.60792 15.9364 3.5504 16.3181 3.8612 16.6909C3.9709 16.8216 4.57424 17.6158 5.01169 18.026C4.41727 18.2601 3.22844 18.7435 2.37271 18.851C2.20148 18.8728 2.00884 18.9928 1.84742 19.0851C1.74039 19.2679 1.6298 19.5948 1.58343 19.964C1.55043 20.228 1.55489 20.5214 1.55489 20.8211C1.55489 21.085 1.69446 21.9149 1.98966 22.4723C2.28531 23.0297 2.56892 23.279 2.91808 23.4417C2.98719 23.4114 3.13925 23.3887 3.37649 23.3833C4.02263 23.3686 4.52831 23.7258 4.75127 24.0322C4.83644 24.1499 5.00767 24.1731 5.23286 24.1731C5.75415 24.1731 6.32761 24.0014 6.87208 23.794C6.98846 23.6982 7.31666 23.4797 7.63906 23.2264C7.96102 22.974 9.75586 21.4516 10.5501 21.0672C10.9683 21.2937 11.6551 21.5854 12.3641 21.5854C12.4051 21.5854 12.5415 21.5872 12.6865 21.555C12.9081 21.5047 13.1921 21.4061 13.5493 21.3357C14.1892 21.2112 14.9397 21.1015 15.1587 21.1047C15.7473 21.114 17.4726 21.1586 17.8815 21.1586C18.3105 21.1586 18.9223 21.1212 19.1559 21.0984C19.5171 20.9789 20.322 20.756 21.093 20.4001C21.8622 20.0594 23.4818 18.9353 23.7467 18.6784C23.8756 18.5634 23.9897 18.4372 24.074 18.3248C24.1057 18.2811 24.1173 18.2637 24.1173 18.2289L24.1083 17.0931C24.1083 17.0931 24.4954 16.6637 24.6435 16.5148C24.6577 16.501 24.6586 16.4809 24.6564 16.4671C24.5899 16.2468 24.5235 15.5614 24.5614 14.8662L24.1694 14.6834C24.1517 15.4136 23.9351 16.1251 23.5429 16.7413C22.9601 16.8336 21.848 17.1783 21.4475 17.634L21.6678 17.6969C22.0437 17.4896 22.4464 17.3442 22.9066 17.3442C23.3133 17.3442 23.4925 17.4512 23.4925 17.5654C23.4925 17.6456 23.4158 17.8378 23.3864 17.8989C23.3512 17.9685 23.328 18.0572 23.2598 18.1313C22.704 18.7411 22.0528 19.2564 21.3316 19.6572C20.8206 19.943 20.3385 20.1352 19.5849 20.3488C19.3593 20.4126 19.0498 20.504 18.8487 20.5736C18.5646 20.5647 17.0806 20.5214 16.2137 20.5214C15.3473 20.5214 13.56 20.6476 12.9919 20.7912C12.7342 20.8563 12.67 20.9602 12.3703 20.9602C11.8107 20.9602 11.0762 20.6761 10.6254 20.4576C10.5603 20.4768 10.3971 20.549 10.2343 20.6302C9.91417 20.7894 9.20247 21.7771 8.78866 21.4784C8.57729 21.9113 7.66493 22.3216 7.35278 22.7706C7.38712 22.5356 7.75545 21.0106 7.79023 20.7056C7.79648 20.6516 7.80094 20.6079 7.7666 20.5504C7.4335 19.9939 6.50241 19.6403 5.97756 19.5377C5.82327 19.5074 5.74746 19.4864 5.64401 19.4628L4.81593 19.2126L4.0476 19.4628L4.9341 19.6327L3.80903 20.3783C4.00435 20.3033 5.21681 19.9671 5.30644 19.9404C5.40544 19.9109 5.53788 19.8819 5.68235 19.9323C5.84735 19.9899 6.31512 20.0969 6.59338 20.1936C6.75703 20.2503 7.02503 20.5508 7.09415 20.7109C7.12224 20.7778 7.13294 20.9183 7.15123 21.2291C7.16237 21.4248 7.11243 21.6969 7.06516 21.9082C6.9412 22.4612 6.68969 22.8933 6.61032 23.0476C6.50062 23.2603 6.34901 23.3289 6.19963 23.3994C5.95437 23.5144 5.65471 23.5867 5.3216 23.5911C5.09284 23.5938 4.93989 23.5818 4.84224 23.4493C4.53499 23.0346 3.77603 22.6324 3.00102 22.7822C2.52566 22.4946 2.05432 21.5662 2.05432 20.8269C2.05432 20.3836 2.27818 19.6849 2.39858 19.3339C3.1727 19.2305 4.72094 18.6405 5.47411 18.2985C5.63197 18.2904 6.06496 18.1375 6.47877 18.1375C7.49146 18.1375 8.49613 19.0231 9.10615 19.6215C9.20604 19.457 9.39377 19.2077 9.91149 19.2077C10.6285 19.2077 11.0388 19.8592 11.2444 20.5299L11.618 20.2583C11.5435 19.8415 11.346 19.4565 11.0508 19.1529C10.8033 18.9054 10.332 18.6998 9.96322 18.6998C9.74159 18.6998 9.51105 18.7493 9.36568 18.7493C8.85331 18.7493 8.64462 18.521 8.26648 18.2606C7.85801 17.9783 7.09816 17.5689 6.55592 17.5689C6.20676 17.5689 6.0498 17.7058 5.76173 17.7067C5.3381 17.7094 5.18069 17.5333 4.9778 17.2809C4.88906 17.1703 4.46008 16.7895 4.34548 16.6365C4.27948 16.5487 4.16265 16.1888 4.12029 16.0087L3.53925 15.5917Z" fill="#2D2D2D"/>
<path fill-rule="evenodd" clip-rule="evenodd" d="M4.12144 16.0086C4.24451 16.1402 4.36313 16.2856 4.51697 16.4033C4.66546 16.5156 4.8532 16.6133 5.02934 16.7132C5.27816 16.8541 5.56043 17.0155 5.84047 17.1043C6.08573 17.1783 6.40412 17.2086 6.70289 17.2086C7.12874 17.2086 7.6313 17.1208 8.04735 17.3147C8.32649 17.4454 8.34522 17.7397 8.56685 17.8258C8.91199 17.96 9.87117 17.9912 10.4027 17.9912C11.4555 17.9912 12.5944 17.8579 13.2673 17.6969L12.9391 17.3353C12.4736 17.4093 11.1073 17.5582 10.4803 17.5582C9.59693 17.5582 8.76261 17.4173 8.76261 17.0512C8.76261 16.7988 9.03462 16.4336 9.55234 16.4336C10.1084 16.4336 10.949 16.7698 11.1041 16.8158C11.2598 16.8621 11.3231 16.8496 11.4208 16.8046L11.7463 16.6365C11.3142 16.4354 9.81008 15.9181 9.28612 15.9181C9.03819 15.9181 8.90396 15.9538 8.74299 16.1611C8.54187 16.4198 8.00498 16.6557 7.14747 16.6557C6.67747 16.6557 6.00502 16.5718 5.85742 16.5112C5.59923 16.4051 5.09355 16.1116 4.77026 15.878C4.35332 15.5774 3.99034 15.2439 3.74062 14.8546C3.66851 14.743 3.63054 14.6128 3.63137 14.48C3.63226 14.3788 3.6608 14.2847 3.67106 14.2102C3.74552 14.3137 3.82624 14.3886 3.92925 14.4854C4.38186 14.9259 5.04985 15.2568 5.73657 15.3884C5.93233 15.4258 6.10624 15.4552 6.29977 15.4552C6.59274 15.4552 6.86342 15.2983 7.03555 15.1444L6.76576 14.831C6.67881 14.8573 6.49865 14.8573 6.38004 14.8573C5.38295 14.8573 4.11742 14.2049 3.82624 13.4508C3.79725 13.3768 3.76247 13.3358 3.79145 13.2671C3.82044 13.1975 3.85656 13.0508 3.87752 12.9157C3.93593 12.9826 4.05633 13.0838 4.20928 13.1824C4.57985 13.42 5.28664 13.7491 5.42487 13.8356C5.78116 13.7331 6.04916 13.6136 6.26098 13.5039C6.51375 13.3712 6.79465 13.301 7.08014 13.2992C7.80878 13.2992 8.64622 13.7148 9.43283 14.1023L9.96972 13.8905C9.27185 13.4 7.75304 12.7133 6.9089 12.7133C6.41081 12.7133 5.94259 13.0776 5.60904 13.0776C5.19968 13.0776 4.0269 12.5059 4.0269 12.0292C4.0269 11.6627 4.78586 11.4549 6.00636 11.3046C5.794 11.6185 5.59422 11.9407 5.40748 12.2705L5.71829 12.443C7.62996 9.67473 9.61833 7.87721 11.291 6.78203C11.8983 6.38382 12.037 6.15149 12.2493 5.71716C12.7674 4.65809 13.2562 3.84384 14.1061 3.84384C14.503 3.84384 14.8272 4.06635 15.0497 4.34282L15.6651 4.52654L15.0421 4.94839L15.6789 5.20123C14.8481 5.43445 13.7128 6.24246 13.2535 7.42817C12.3679 7.47544 11.9407 8.19204 11.6513 8.7927C11.456 9.1976 11.1456 9.35947 10.693 9.66582L7.073 12.1893L7.5711 12.258L10.9155 10.0185C11.575 9.57351 11.889 9.24531 12.0468 8.92915C12.3572 8.30887 12.6912 7.84778 13.3471 7.84778C13.6695 7.84778 14.0147 7.98602 14.2907 8.24644L14.8771 8.43819L14.2368 8.82971L14.7737 9.15925C13.2397 9.63995 12.2885 10.7392 11.736 12.8408L12.1431 12.9331C12.3469 12.237 12.5476 11.5989 12.907 11.0357C13.7962 11.0254 14.6961 10.9929 15.5794 10.9929C17.9366 10.9929 19.8933 11.0923 20.9492 11.4031L20.5756 10.7543C19.4456 10.5626 17.8064 10.4631 15.5794 10.4631C14.8325 10.4631 14.0762 10.4908 13.3248 10.4988C13.8096 9.98554 14.5079 9.55389 15.583 9.22034L14.82 8.80028L15.6673 8.33027L14.5128 7.90085C14.3108 7.71936 14.0597 7.55303 13.744 7.47366C14.1132 6.33744 15.373 5.67346 16.5801 5.21594L15.7346 4.87124L16.5877 4.40436L15.2744 3.98519C14.9315 3.58252 14.6011 3.3988 14.0945 3.3988C12.8767 3.3988 12.3648 4.45653 11.8818 5.39387C11.6277 5.8875 11.4667 6.0953 11.0346 6.37847C10.0981 6.99116 8.90396 7.92805 7.76418 9.12803C7.16843 8.69861 5.95195 7.44333 5.62108 6.75839C5.49087 6.91937 5.362 7.27031 5.362 7.27031C5.48641 7.40186 6.92005 8.84977 7.45248 9.46337L7.33208 9.59804C6.76442 9.71085 5.28886 9.85266 4.78676 9.78443L4.50493 10.2848C4.87995 10.2477 6.3457 10.0752 6.95394 10.0395C6.76754 10.2653 6.58703 10.4959 6.41259 10.7311C4.52723 10.9452 3.26839 11.3318 3.26839 12.0283C3.26839 12.1429 3.31432 12.2731 3.31432 12.3962C3.31432 12.6878 3.20551 12.7949 2.99816 12.9255C2.86304 13.0102 2.85457 13.0696 2.91209 13.1498C2.97006 13.2314 3.26081 13.6613 3.26081 13.746C3.26081 13.8851 3.12212 14.0256 3.0102 14.15C2.91209 14.2597 2.91611 14.2887 2.99281 14.4269L3.53951 15.5886L4.12144 16.0086ZM27.4619 9.54185C27.3415 9.66849 27.2354 9.80361 27.1462 9.94719L26.8426 9.52089C27.8566 8.16974 30.5344 7.53564 32.1053 7.42416V6.69953C31.906 6.76107 31.6911 6.83018 31.4922 6.87745C31.2104 6.94523 30.9517 7.00811 30.7323 7.00231C30.513 6.99696 30.335 6.90912 30.253 6.79184C30.0421 6.49084 30.2378 6.036 30.9281 5.61058L30.3836 5.15797C29.9636 5.70289 29.5498 6.304 29.1288 6.66297C28.7462 6.98938 28.3453 7.15214 28.0216 6.91045C27.8472 6.78024 27.7817 6.72093 27.7643 6.38114C27.7875 5.88215 28.0911 5.11962 28.3587 4.62866L27.7143 4.55285C27.5997 5.30468 27.2916 5.94592 26.9616 6.47478C26.5505 7.13475 26.0203 7.59762 25.4745 7.97666L25.1164 7.62393C25.557 7.36396 26.1086 6.94122 26.4881 6.3584C26.9282 5.68149 27.2854 4.84449 27.2858 4.08419L29.1498 4.26077C28.888 4.59343 28.4559 5.35239 28.2918 5.89731C28.2066 6.18181 28.2107 6.4079 28.3137 6.48504C28.5112 6.63309 28.8572 6.39675 29.193 6.03689C29.6666 5.52809 30.1304 4.76065 30.335 4.48686L31.6831 5.60523C31.0837 5.92273 30.5031 6.28527 30.6186 6.48906C30.7243 6.67456 31.1083 6.61882 31.5288 6.48995C31.8771 6.3824 32.2124 6.23659 32.5285 6.05517V7.87722C31.8788 7.8683 30.7783 7.98959 29.7183 8.3111C29.9703 8.66695 30.694 8.7976 31.1537 8.86092L30.9232 10.3396C29.7629 9.85221 28.8679 9.5686 27.4619 9.54185L27.927 9.1423C28.9634 9.1637 30.0019 9.4647 30.5905 9.7608L30.6748 9.20116C30.1446 9.13115 29.4766 8.82971 29.1939 8.48813C28.7324 8.66159 28.2954 8.87787 27.927 9.1423L27.4619 9.54185Z" fill="#2D2D2D"/>
<path fill-rule="evenodd" clip-rule="evenodd" d="M21.9075 14.2396L22.3392 13.3076C21.8317 12.7071 21.3673 12.0714 20.9497 11.4053L20.576 10.7565C19.7127 9.11682 20.0271 8.33334 19.5664 7.61183C19.1856 7.01563 17.3359 7.38664 17.0291 7.45085L17.5642 6.56481L16.5096 6.64864L17.4033 5.5869C17.5009 5.44866 17.5469 5.32246 17.6503 4.95413C17.8082 4.3945 18.2889 3.43933 19.6967 3.43933C21.2592 3.43933 21.7434 4.70352 22.4248 5.2529C23.3551 6.00433 24.2528 6.79523 25.1155 7.62343L25.4736 7.97615C25.9351 8.44794 26.4073 8.9331 26.8426 9.52038L27.1462 9.94668C29.0271 12.6927 31.3642 17.9416 32.3974 20.3456C32.4973 20.5779 32.5687 20.8143 32.6306 20.9935C31.8507 20.5591 31.0929 20.0862 30.36 19.5764L29.8962 19.25C29.6053 19.0403 29.3176 18.8261 29.0334 18.6074L28.5567 18.2328C28.2699 18.0034 27.9873 17.7688 27.709 17.5292L28.6494 23.0064C28.7186 23.3288 28.9941 23.2758 29.2167 22.9917C29.4392 22.7077 29.5234 22.6301 29.4392 22.255L28.5567 18.2328L29.0334 18.6074L29.8793 22.025C29.9613 22.3331 30.0916 22.4307 30.4519 22.4463C30.8126 22.462 30.8893 22.3237 30.8126 22.0865L29.8967 19.25L30.3604 19.5764L31.2273 22.1239C31.4498 22.7763 31.2273 22.853 30.8362 22.853C30.4452 22.853 30.0924 22.7607 29.8775 22.8994C29.663 23.0372 29.3937 23.414 29.0717 23.7444C28.7872 24.0352 28.3739 23.9594 28.2896 23.4136L27.2501 17.1252C26.582 16.5275 25.9483 15.8924 25.3523 15.2228C25.0866 15.1085 24.8231 14.9894 24.5617 14.8657L24.1697 14.6828C24.0772 14.6384 23.9829 14.5978 23.887 14.5611C23.5994 14.9067 23.3233 15.292 23.0014 15.568C22.8302 15.7151 22.7133 15.799 22.4605 15.799C22.3824 15.799 22.2857 15.7981 22.1956 15.7468C22.0993 15.6928 22.0088 15.584 21.908 15.4306C21.8317 15.3138 21.7189 15.1649 21.6204 14.9994C21.4148 14.6547 21.1932 14.2217 20.9934 13.8717C20.7695 13.4779 20.5769 13.1845 20.5506 13.1359C20.5105 13.061 20.4012 12.9687 20.4012 12.9687C20.2915 13.1475 20.2108 13.4922 20.2108 13.6822L19.8197 13.5497C19.8715 13.2911 19.9754 12.9571 20.0324 12.7961C20.0324 12.6579 19.8772 12.4737 19.7506 12.4737C19.5722 12.4737 19.3885 12.6695 19.2962 13.0436L18.8993 13.2162C18.9457 12.612 19.1522 11.9507 19.7506 11.9507C20.234 11.9507 20.5332 12.319 20.7633 12.6641C20.9929 13.0084 21.747 14.0385 21.9075 14.2396L22.2068 14.6186C22.2589 14.8554 22.3593 14.9923 22.4079 15.0681C22.5118 15.2291 22.6268 15.2179 22.782 15.0735C22.8529 15.0084 23.0808 14.8229 23.3015 14.5928C23.4932 14.3925 23.6796 14.1495 23.7545 14.0264C23.9739 14.125 24.3829 14.3207 24.7119 14.4652C23.2997 12.7252 21.9477 10.6133 21.3613 9.17702C21.1187 8.5835 21.5927 8.38462 21.8215 8.96967C22.4431 10.5576 24.2607 13.3651 25.5953 14.8371C27.1382 16.5397 29.9676 19.0029 31.8084 19.9924C31.5417 19.4716 31.189 18.7242 30.7823 17.8578C28.5433 16.5914 26.2803 14.2659 25.2256 12.2682L25.6894 12.3217C26.6713 14.0576 29.016 16.3733 30.4015 17.0467C29.1351 14.3591 27.4865 10.9527 26.2 9.48738C24.604 7.67025 22.8614 6.2647 22.0288 5.53338C21.2083 4.81233 20.8703 3.90755 19.6891 3.90755C18.7147 3.90755 18.2028 4.60899 18.0075 5.31711C17.9669 5.45535 17.9442 5.54141 17.8465 5.685L17.3863 6.2375L18.3812 6.11665L17.8055 6.92199C17.8055 6.92199 19.3653 6.57194 19.9116 7.31307C20.4993 8.11216 20.1198 9.00935 21.0848 10.7534C21.5093 11.5199 22.5358 12.8982 22.8792 13.2042L22.2063 14.6186L21.9075 14.2396ZM6.57671 14.4808L6.34082 14.3207C6.53899 14.1618 6.75749 14.0299 6.99053 13.9288C7.11594 13.8774 7.24968 13.8493 7.38517 13.8458C7.6496 13.8458 7.87747 13.9564 8.09999 14.075C8.45182 14.2623 8.84691 14.4826 9.14969 14.4826C9.26474 14.4826 9.37622 14.4554 9.50643 14.4554C9.80609 14.4554 10.0937 14.5896 10.2583 14.5896C10.3581 14.5896 10.4273 14.5 10.4928 14.4059C10.6578 14.1682 10.8857 13.9921 11.1769 13.8704C11.4894 13.7397 11.8654 13.6875 12.2743 13.6875C12.5962 13.6875 12.9052 13.7339 13.0662 13.7687C13.0662 13.7687 12.8205 14.0648 12.759 14.1303C12.4339 14.1303 11.8145 14.1192 11.4168 14.2802C11.1724 14.3787 11.085 14.5205 11.085 14.7234C11.085 15.0159 11.4123 15.131 11.7771 15.2416C11.992 15.3067 12.2332 15.3227 12.4366 15.3227C12.6872 15.3227 13.1675 15.2286 13.6419 15.1243C14.2149 14.9981 14.7474 14.8474 14.903 14.7899L15.1099 15.1618C14.4722 15.3776 13.8203 15.5823 13.2152 15.7053C12.8731 15.7749 12.5472 15.8177 12.2564 15.8177C11.7708 15.8177 11.2437 15.6139 10.8103 15.4075C10.4446 15.2331 10.1187 15.061 9.82704 15.061C9.49929 15.061 9.19116 15.1742 8.88749 15.3477C8.73899 15.4329 8.29084 15.7415 7.89174 15.898C7.58539 16.0197 7.33567 16.087 7.02531 16.087C6.74884 16.087 6.58385 16.0478 6.44071 15.9363L6.92141 15.642C6.98339 15.7031 7.09443 15.7143 7.1631 15.7143C7.23222 15.7143 7.31472 15.7053 7.50334 15.6273C7.61125 15.5818 7.76822 15.4855 7.86008 15.4262C8.05004 15.3036 8.11292 15.2318 8.18783 15.1729C8.3332 15.0579 8.38671 14.9053 8.20121 14.7399C8.11039 14.6542 8.01154 14.5775 7.90601 14.5107C7.73968 14.4113 7.61973 14.3141 7.31917 14.3141C6.96422 14.3127 6.71406 14.4104 6.57671 14.4808Z" fill="#2D2D2D"/>
<path fill-rule="evenodd" clip-rule="evenodd" d="M13.2735 14.6717C13.2735 14.6717 12.9876 14.5923 12.8877 14.5847C13.0677 14.3461 13.2853 14.1384 13.5321 13.9698C13.9223 13.7058 14.3308 13.5613 14.9488 13.5239C15.1169 13.5136 15.4594 13.4811 15.6507 13.4891C15.8233 13.4971 16.1149 13.5083 16.3833 13.5578C16.5733 13.5934 16.7503 13.6465 16.8975 13.6693C16.9871 13.6831 17.2988 13.6786 17.4072 13.6612C17.8446 13.5926 18.3699 13.4235 18.6464 13.2728L18.7615 13.6933C18.1706 13.9948 17.5031 14.2855 16.8921 14.2855C16.5809 14.2855 16.2505 14.2619 15.9423 14.2333C15.3992 14.1812 14.9292 14.1089 14.7673 14.1089C14.3276 14.1089 13.6949 14.3136 13.2735 14.6717ZM12.8374 17.0101L12.2817 16.7559C13.0523 16.3657 14.2295 15.9747 14.7125 15.8971C15.1958 15.8213 15.7483 15.7629 16.0663 15.6558C16.2121 16.0242 16.5002 16.4179 16.9144 16.4179C17.0656 16.4179 17.314 16.3038 17.5637 16.1932C17.8442 16.0697 18.126 15.9345 18.2718 15.869C18.4297 15.7994 18.9416 15.5747 19.3755 15.3812C19.5926 15.2825 19.8083 15.1808 20.0225 15.0761L20.3142 15.234C20.2268 15.617 20.0809 16.0884 19.9168 16.4255C19.8526 16.5579 19.7884 16.6667 19.7193 16.7452C19.5927 16.8879 19.388 17.0779 19.1209 17.267C18.8292 17.4743 18.4738 17.6866 18.0966 17.9028C17.8027 18.0727 17.5071 18.2444 17.2074 18.3818L17.0518 18.0995C17.5138 17.8382 17.9833 17.5073 18.3962 17.2014C18.5916 17.0569 18.7806 16.9107 18.9157 16.7867C19.0161 16.6953 19.079 16.6195 19.1289 16.5455C19.2515 16.3653 19.4513 16.0126 19.5124 15.8436C19.3403 15.9279 18.6883 16.2355 18.3967 16.388C18.0676 16.5615 17.5338 16.8331 17.2346 16.9749C16.9992 17.0855 16.7891 17.1466 16.6384 17.1466C16.3044 17.1466 16.1528 16.9062 16.0707 16.7608C15.8598 16.3845 15.6337 16.3497 15.0389 16.3421C14.3486 16.3336 13.4015 16.619 12.8374 17.0101ZM16.0801 15.2755C16.0801 15.2755 15.9994 14.9473 15.9611 14.8278C15.9611 14.8278 16.0569 14.7965 16.1836 14.7965C16.3905 14.7965 16.902 14.8541 17.1142 14.8541C17.9133 14.8541 18.2081 14.6026 18.4426 14.3908C18.6428 14.2106 18.8484 14.0635 19.392 14.0635C19.8714 14.0635 20.4216 14.257 20.579 14.3332L20.5447 14.7698C20.2858 14.6314 19.9976 14.5568 19.7041 14.5522C19.5061 14.5522 19.3278 14.5678 19.202 14.6333C19.0607 14.7065 18.9746 14.8162 18.8417 14.925C18.7008 15.0409 18.5077 15.1533 18.2549 15.2465C18.002 15.3397 17.689 15.4034 17.2221 15.4034C16.6059 15.4026 16.2719 15.2995 16.0801 15.2755Z" fill="#2D2D2D"/>
<path fill-rule="evenodd" clip-rule="evenodd" d="M11.0192 18.5709L11.3875 18.4184C11.7251 18.549 12.2129 18.6971 12.5522 18.6971C12.7565 18.6971 12.925 18.6239 13.0637 18.5619C13.1725 18.5133 14.3997 17.9113 15.0088 17.6902C15.2024 17.6206 15.399 17.5814 15.4944 17.5814C15.6403 17.5814 15.6487 17.6465 15.6898 17.7138C15.8048 17.8975 16.7109 19.1907 16.8028 19.2901C17.5711 19.0542 18.3582 18.7082 18.8121 18.273C19.2852 17.8168 19.6781 17.2888 20.0576 16.8804C20.2038 16.7225 20.3849 16.5798 20.4745 16.5321C20.8674 16.323 22.0892 16.3056 22.6029 16.3283L22.2983 16.7595C21.3931 16.7595 20.8865 16.8527 20.6587 17.0244C20.5624 17.0966 20.417 17.2429 20.2783 17.4235C19.9693 17.8266 19.6317 18.3782 19.4966 18.4861C19.7615 18.6699 20.0513 18.8308 20.5111 18.8308C21.2781 18.8308 21.8274 18.351 22.1284 18.0799L22.3862 18.2333C22.1958 18.4808 21.9777 18.7341 21.6999 18.9231C21.3918 19.1323 21.0034 19.2678 20.7737 19.3316C20.3287 19.2473 19.3486 19.0493 19.1189 19.0034C18.2712 19.349 16.8906 19.9073 16.4269 20.0469C16.3243 20.0725 16.2197 20.0891 16.1143 20.0964C15.7477 20.1164 15.238 20.1138 14.7738 20.1084C14.4443 20.104 14.1326 20.1057 13.9761 20.0772L13.5672 19.6504C13.9279 19.7191 14.0684 19.7401 14.4055 19.7401C15.2033 19.7401 15.7165 19.6067 15.886 19.5635C16.0282 19.5269 16.0519 19.4449 16.0095 19.316C15.9422 19.1113 15.824 18.9169 15.6443 18.7091C15.5215 18.5754 15.3867 18.4533 15.2416 18.3443C15.1319 18.2694 15.0249 18.2502 14.7239 18.3532C14.4447 18.4482 13.5788 18.9169 13.2055 19.1153C13.0209 19.2139 12.8773 19.2424 12.546 19.1639C12.1951 19.0814 11.3558 18.7746 11.0192 18.5709ZM13.4205 8.95984C13.5038 8.95984 13.5838 8.92672 13.6428 8.86776C13.7017 8.80881 13.7348 8.72884 13.7348 8.64546C13.7348 8.56209 13.7017 8.48212 13.6428 8.42317C13.5838 8.36421 13.5038 8.33109 13.4205 8.33109C13.3371 8.33109 13.2571 8.36421 13.1982 8.42317C13.1392 8.48212 13.1061 8.56209 13.1061 8.64546C13.1061 8.72884 13.1392 8.80881 13.1982 8.86776C13.2571 8.92672 13.3371 8.95984 13.4205 8.95984Z" fill="#2D2D2D"/>
<defs>
<clipPath id="clip0_902_467">
<rect width="87.7462" height="21.8963" fill="white" transform="translate(145.518 55.4244)"/>
</clipPath>
<clipPath id="clip1_902_467">
<rect width="72.3086" height="21.8963" fill="white" transform="translate(214.465 2.27673)"/>
</clipPath>
<clipPath id="clip2_902_467">
<rect width="37.5938" height="25.0243" fill="white" transform="translate(151.871 0.400024)"/>
</clipPath>
<clipPath id="clip3_902_467">
<rect width="18.4436" height="21.8963" fill="white" transform="translate(108.428 2.27673)"/>
</clipPath>
</defs>
</svg>
