<svg width="936" height="40" viewBox="0 0 936 40" fill="none" xmlns="http://www.w3.org/2000/svg">
<path d="M795.536 10.6469C795.536 10.6469 798.989 24.7954 799.54 27.0919C800.183 29.7723 801.342 30.7589 804.683 30.0935L806.839 21.3216C807.385 19.1427 807.752 17.5893 808.103 15.3728H808.165C808.412 17.611 808.763 19.1492 809.213 21.3292C809.213 21.3292 810.091 25.3114 810.54 27.403C810.991 29.4939 812.245 30.8117 815.518 30.0943L820.655 10.6484H816.507L814.753 19.0558C814.282 21.503 813.854 23.4152 813.524 25.6541H813.465C813.166 23.4376 812.784 21.6011 812.305 19.2167L810.479 10.6484H806.157L804.204 19.0009C803.651 21.5389 803.133 23.5885 802.804 25.7514H802.744C802.407 23.7145 801.958 21.1386 801.472 18.6817C801.472 18.6817 800.311 12.7076 799.904 10.6484L795.536 10.6489L795.536 10.6469ZM835.075 10.6469V30.0928H839.024V25.9635V10.6459H835.075V10.6469ZM890.692 10.6469V24.9925C890.692 26.9704 891.065 28.3561 891.861 29.2027C892.557 29.9431 893.703 30.4225 895.076 30.4225C896.243 30.4225 897.392 30.2011 897.934 29.9994L897.883 26.9135C897.48 27.0126 897.016 27.0919 896.383 27.0919C895.037 27.0919 894.586 26.2304 894.586 24.4545V18.9659H898.025V15.2453H894.586V10.6469H890.692L890.692 10.6469ZM826.25 15.1548C823.796 15.1548 821.848 15.8439 820.786 16.4576L821.563 19.1187C822.535 18.506 824.083 17.9988 825.548 17.9988C827.974 17.9925 828.37 19.3704 828.37 20.2542V20.4631C823.084 20.4552 819.745 22.2843 819.745 26.0127C819.745 28.2892 821.445 30.4225 824.401 30.4225C826.22 30.4225 827.742 29.6969 828.653 28.5343H828.743C828.743 28.5343 829.347 31.0591 832.674 30.0936C832.499 29.0428 832.442 27.9223 832.442 26.5729V21.378C832.442 18.067 831.028 15.1549 826.25 15.1549L826.25 15.1548ZM849.872 15.1548C847.401 15.1548 846.291 16.4071 845.618 17.4696H845.559V15.4846H841.79V30.0937H845.76V21.5261C845.76 21.1244 845.806 20.6997 845.947 20.3302C846.275 19.4676 847.078 18.4586 848.359 18.4586C849.961 18.4586 850.711 19.8129 850.711 21.7673V30.0936H854.676V21.4223C854.676 21.0389 854.729 20.5771 854.842 20.2381C855.168 19.2568 856.033 18.4584 857.224 18.4584C858.848 18.4584 859.627 19.7892 859.627 22.0889V30.0936H863.596V21.4893C863.596 16.9516 861.292 15.1549 858.691 15.1549C857.539 15.1549 856.63 15.4438 855.808 15.9484C855.117 16.3724 854.498 16.9748 853.958 17.768H853.899C853.27 16.1936 851.794 15.1549 849.872 15.1549L849.872 15.1548ZM871.673 15.1548C869.219 15.1548 867.271 15.8439 866.208 16.4576L866.987 19.1187C867.958 18.506 869.506 17.9988 870.97 17.9988C873.395 17.9925 873.792 19.3704 873.792 20.2542V20.4631C868.507 20.4552 865.168 22.2843 865.168 26.0127C865.168 28.2892 866.868 30.4225 869.825 30.4225C871.643 30.4225 873.165 29.6969 874.075 28.5343H874.165C874.165 28.5343 874.769 31.0591 878.096 30.0936C877.921 29.0428 877.865 27.9223 877.865 26.5729V21.378C877.865 18.067 876.451 15.1549 871.673 15.1549L871.673 15.1548ZM888.159 15.1548C886.639 15.1548 884.909 16.1361 884.183 18.2397H884.072V15.4844H880.498V30.0935H884.572V22.6128C884.572 22.2092 884.597 21.8573 884.661 21.5347C884.962 19.9676 886.161 18.9659 887.881 18.9659C888.353 18.9659 888.691 19.017 889.057 19.0698V15.2452C888.75 15.1833 888.54 15.1547 888.159 15.1547L888.159 15.1548ZM828.498 23.052V24.8745C828.498 25.1441 828.474 25.4222 828.4 25.6654C828.094 26.6776 827.045 27.533 825.735 27.533C824.642 27.533 823.774 26.9127 823.774 25.6006C823.774 23.5937 825.983 23.0389 828.498 23.052H828.498ZM873.92 23.052V24.8745C873.92 25.1441 873.896 25.4222 873.822 25.6654C873.516 26.6776 872.468 27.533 871.157 27.533C870.064 27.533 869.196 26.9127 869.196 25.6006C869.196 23.5937 871.405 23.0389 873.92 23.052H873.92Z" fill="#2D2D2D"/>
<path d="M919.377 3.61401C918.102 3.61401 917.089 4.32595 917.089 5.19265L917.863 13.9596C917.948 14.4878 918.595 14.8952 919.378 14.8952C920.161 14.8942 920.806 14.4871 920.893 13.9596L921.671 5.19265C921.671 4.32602 920.655 3.61409 919.378 3.61409L919.377 3.61401ZM906.76 10.6464C906.098 10.6621 905.346 11.1632 904.868 11.9924C904.228 13.0966 904.342 14.3305 905.09 14.7634L913.069 18.479C913.567 18.6644 914.244 18.3104 914.636 17.6346C914.636 17.6345 914.636 17.6343 914.636 17.6342C915.03 16.9551 914.999 16.1915 914.585 15.8528L907.379 10.7985C907.191 10.6901 906.981 10.6413 906.76 10.6465L906.76 10.6464ZM931.994 10.6464C931.773 10.6412 931.563 10.69 931.376 10.7984L924.169 15.8527C923.757 16.1914 923.727 16.955 924.119 17.6341L924.119 17.6345C924.512 18.3103 925.187 18.6643 925.686 18.4789L933.668 14.7635C934.419 14.3306 934.527 13.0967 933.892 11.9925C933.411 11.1633 932.658 10.6622 931.996 10.6465L931.994 10.6464ZM913.367 22.2132C913.263 22.2118 913.163 22.2277 913.07 22.263L905.091 25.9741C904.343 26.4089 904.229 27.6433 904.869 28.7486C905.507 29.8506 906.631 30.3745 907.379 29.9423L914.586 24.8919C915 24.5491 915.031 23.7857 914.637 23.1072L914.64 23.1087C914.322 22.556 913.814 22.2191 913.367 22.213L913.367 22.2132ZM925.391 22.2132C924.944 22.2192 924.437 22.5562 924.118 23.1088L924.121 23.1073C923.729 23.7858 923.759 24.5492 924.171 24.892L931.378 29.9424C932.125 30.3746 933.25 29.8507 933.891 28.7487C934.526 27.6433 934.419 26.409 933.667 25.9742L925.687 22.2631C925.594 22.2278 925.494 22.2119 925.391 22.2133L925.391 22.2132ZM919.376 25.8465C918.595 25.8475 917.949 26.2531 917.864 26.78L917.09 35.5465C917.09 36.4147 918.103 37.1252 919.378 37.1252C920.655 37.1252 921.67 36.4147 921.67 35.5465L920.894 26.78C920.807 26.2531 920.162 25.8475 919.379 25.8465H919.376H919.376Z" fill="#2D2D2D"/>
<path d="M664.01 21.4188C664.01 26.4543 660.071 30.1648 655.236 30.1648C650.402 30.1648 646.463 26.4543 646.463 21.4188C646.463 16.3478 650.402 12.6727 655.236 12.6727C660.071 12.6727 664.01 16.3478 664.01 21.4188ZM660.169 21.4188C660.169 18.2721 657.886 16.1191 655.236 16.1191C652.586 16.1191 650.303 18.2721 650.303 21.4188C650.303 24.5339 652.586 26.7185 655.236 26.7185C657.886 26.7185 660.169 24.53 660.169 21.4188Z" fill="#2D2D2D"/>
<path d="M682.937 21.4188C682.937 26.4543 678.998 30.1648 674.164 30.1648C669.329 30.1648 665.39 26.4543 665.39 21.4188C665.39 16.3517 669.329 12.6727 674.164 12.6727C678.998 12.6727 682.937 16.3478 682.937 21.4188ZM679.096 21.4188C679.096 18.2721 676.813 16.1191 674.164 16.1191C671.514 16.1191 669.231 18.2721 669.231 21.4188C669.231 24.5339 671.514 26.7185 674.164 26.7185C676.813 26.7185 679.096 24.53 679.096 21.4188Z" fill="#2D2D2D"/>
<path d="M701.076 13.2011V28.903C701.076 35.362 697.267 38 692.764 38C688.525 38 685.973 35.1648 685.011 32.8462L688.355 31.4543C688.951 32.8778 690.41 34.5576 692.76 34.5576C695.642 34.5576 697.429 32.7792 697.429 29.4314V28.1735H697.294C696.435 29.2342 694.779 30.1609 692.689 30.1609C688.316 30.1609 684.309 26.3517 684.309 21.4503C684.309 16.5134 688.316 12.6727 692.689 12.6727C694.775 12.6727 696.431 13.5994 697.294 14.6286H697.429V13.2051H701.076V13.2011ZM697.701 21.4503C697.701 18.3707 695.646 16.1191 693.032 16.1191C690.382 16.1191 688.162 18.3707 688.162 21.4503C688.162 24.4984 690.382 26.7185 693.032 26.7185C695.646 26.7185 697.701 24.4984 697.701 21.4503Z" fill="#2D2D2D"/>
<path d="M707.089 3.99762V29.6285H703.343V3.99762H707.089Z" fill="#2D2D2D"/>
<path d="M721.687 24.2974L724.668 26.2847C723.706 27.7082 721.388 30.1609 717.381 30.1609C712.413 30.1609 708.702 26.3202 708.702 21.4149C708.702 16.2138 712.444 12.6688 716.951 12.6688C721.49 12.6688 723.71 16.2808 724.436 18.2327L724.834 19.2264L713.142 24.0687C714.037 25.8234 715.429 26.7185 717.381 26.7185C719.337 26.7185 720.693 25.7563 721.687 24.2974ZM712.511 21.1507L720.327 17.9054C719.897 16.8131 718.604 16.0521 717.081 16.0521C715.13 16.0521 712.413 17.7753 712.511 21.1507Z" fill="#2D2D2D"/>
<path d="M632.283 19.1435V15.433H644.787C644.909 16.0796 644.972 16.8446 644.972 17.6727C644.972 20.4566 644.211 23.899 641.758 26.3517C639.373 28.8359 636.324 30.1609 632.287 30.1609C624.802 30.1609 618.509 24.0646 618.509 16.5804C618.509 9.09621 624.802 3 632.287 3C636.427 3 639.377 4.6246 641.593 6.74211L638.974 9.3604C637.385 7.86987 635.232 6.71056 632.283 6.71056C626.817 6.71056 622.543 11.1151 622.543 16.5804C622.543 22.0457 626.817 26.4503 632.283 26.4503C635.828 26.4503 637.847 25.0268 639.14 23.7334C640.189 22.6845 640.879 21.1861 641.151 19.1396L632.283 19.1435Z" fill="#2D2D2D"/>
<g clip-path="url(#clip0_902_216)">
<path fill-rule="evenodd" clip-rule="evenodd" d="M504.633 30.3711C497.916 35.3459 488.181 38.0001 479.799 38.0001C468.046 38.0001 457.465 33.632 449.461 26.3671C448.832 25.7958 449.395 25.0172 450.15 25.4621C458.788 30.5127 469.47 33.5511 480.503 33.5511C487.944 33.5511 496.13 32.0041 503.656 28.7938C504.794 28.3085 505.744 29.542 504.633 30.3711Z" fill="#2D2D2D"/>
<path fill-rule="evenodd" clip-rule="evenodd" d="M507.424 27.1608C506.569 26.0587 501.749 26.6401 499.586 26.8979C498.927 26.9788 498.826 26.4025 499.42 25.9879C503.258 23.2731 509.557 24.0567 510.292 24.9667C511.027 25.8818 510.101 32.2265 506.493 35.2549C505.94 35.72 505.412 35.4722 505.658 34.8555C506.468 32.8231 508.285 28.268 507.424 27.1608Z" fill="#2D2D2D"/>
<path fill-rule="evenodd" clip-rule="evenodd" d="M499.737 6.82217V4.18315C499.737 3.78376 500.039 3.51581 500.401 3.51581H512.159C512.536 3.51581 512.838 3.78881 512.838 4.18315V6.443C512.833 6.82217 512.516 7.31762 511.953 8.10124L505.86 16.8424C508.124 16.7868 510.514 17.1255 512.567 18.2883C513.029 18.5512 513.155 18.9354 513.19 19.3146V22.1306C513.19 22.5148 512.768 22.9647 512.325 22.7322C508.708 20.8262 503.903 20.6189 499.903 22.7524C499.496 22.9748 499.068 22.53 499.068 22.1457V19.4713C499.068 19.0416 499.073 18.3085 499.501 17.6563L506.559 7.48446H500.416C500.039 7.48446 499.737 7.21652 499.737 6.82217Z" fill="#2D2D2D"/>
<path fill-rule="evenodd" clip-rule="evenodd" d="M456.846 23.2881H453.268C452.926 23.2629 452.655 23.005 452.629 22.6764V4.22851C452.629 3.85945 452.936 3.56622 453.319 3.56622H456.654C457.001 3.58138 457.278 3.84934 457.303 4.18301V6.59453H457.369C458.239 4.2639 459.874 3.17694 462.078 3.17694C464.317 3.17694 465.716 4.2639 466.722 6.59453C467.587 4.2639 469.554 3.17694 471.662 3.17694C473.162 3.17694 474.802 3.79878 475.803 5.19413C476.935 6.7462 476.704 9.001 476.704 10.9777L476.699 22.6208C476.699 22.9899 476.392 23.2881 476.009 23.2881H472.437C472.08 23.2629 471.793 22.9747 471.793 22.6208V12.8433C471.793 12.0647 471.864 10.1233 471.693 9.38523C471.426 8.14661 470.626 7.79777 469.59 7.79777C468.724 7.79777 467.819 8.37916 467.451 9.30939C467.084 10.2396 467.119 11.7968 467.119 12.8433V22.6208C467.119 22.9899 466.812 23.2881 466.43 23.2881H462.858C462.496 23.2629 462.214 22.9747 462.214 22.6208L462.209 12.8433C462.209 10.7856 462.546 7.75732 460.005 7.75732C457.434 7.75732 457.535 10.7098 457.535 12.8433V22.6208C457.535 22.9899 457.228 23.2881 456.846 23.2881" fill="#2D2D2D"/>
<path fill-rule="evenodd" clip-rule="evenodd" d="M522.961 3.17694C528.269 3.17694 531.142 7.75732 531.142 13.5814C531.142 19.2083 527.967 23.6724 522.961 23.6724C517.749 23.6724 514.911 19.092 514.911 13.3842C514.911 7.64104 517.784 3.17694 522.961 3.17694ZM522.991 6.94337C520.355 6.94337 520.189 10.5531 520.189 12.8028C520.189 15.0576 520.154 19.8706 522.961 19.8706C525.733 19.8706 525.864 15.9879 525.864 13.6218C525.864 12.0647 525.799 10.2042 525.331 8.728C524.928 7.44388 524.128 6.94337 522.991 6.94337Z" fill="#2D2D2D"/>
<path fill-rule="evenodd" clip-rule="evenodd" d="M538.024 23.2881H534.462C534.105 23.2629 533.818 22.9747 533.818 22.6208L533.813 4.16784C533.843 3.82911 534.14 3.56622 534.502 3.56622H537.818C538.13 3.58138 538.386 3.79373 538.457 4.0819V6.90292H538.522C539.523 4.38018 540.927 3.17694 543.397 3.17694C545.002 3.17694 546.567 3.75834 547.573 5.35085C548.509 6.82709 548.509 9.30939 548.509 11.094V22.7068C548.469 23.0303 548.172 23.2881 547.82 23.2881H544.233C543.906 23.2629 543.634 23.0202 543.599 22.7068V12.6865C543.599 10.6694 543.83 7.71688 541.36 7.71688C540.489 7.71688 539.689 8.30333 539.292 9.19311C538.789 10.3205 538.723 11.4429 538.723 12.6865V22.6208C538.718 22.9899 538.406 23.2881 538.024 23.2881" fill="#2D2D2D"/>
<path fill-rule="evenodd" clip-rule="evenodd" d="M490.364 14.4762C490.364 15.8766 490.399 17.0445 489.695 18.2882C489.126 19.2993 488.221 19.9211 487.22 19.9211C485.846 19.9211 485.041 18.8696 485.041 17.3175C485.041 14.2538 487.773 13.6977 490.364 13.6977V14.4762ZM493.971 23.2376C493.735 23.4499 493.393 23.4651 493.126 23.3235C491.939 22.3326 491.722 21.8726 491.073 20.9272C489.111 22.9393 487.718 23.5409 485.177 23.5409C482.163 23.5409 479.824 21.6754 479.824 17.9393C479.824 15.0222 481.393 13.0354 483.637 12.0647C485.579 11.2053 488.291 11.0536 490.364 10.816V10.3509C490.364 9.49646 490.429 8.48533 489.926 7.74722C489.494 7.08493 488.658 6.81193 487.919 6.81193C486.555 6.81193 485.343 7.51466 485.046 8.97067C484.986 9.29423 484.749 9.61274 484.422 9.6279L480.956 9.25379C480.664 9.18807 480.337 8.95045 480.422 8.5005C481.217 4.27402 485.021 3 488.422 3C490.163 3 492.437 3.46512 493.81 4.78969C495.551 6.42265 495.385 8.60161 495.385 10.9727V16.5743C495.385 18.2578 496.08 18.9959 496.734 19.906C496.96 20.2295 497.01 20.6188 496.718 20.8615C495.989 21.4732 494.691 22.6107 493.976 23.2477L493.971 23.2376" fill="#2D2D2D"/>
<path fill-rule="evenodd" clip-rule="evenodd" d="M443.468 14.4765C443.468 15.8769 443.503 17.0447 442.799 18.2884C442.23 19.2995 441.33 19.9214 440.324 19.9214C438.95 19.9214 438.15 18.8698 438.15 17.3177C438.15 14.254 440.882 13.6979 443.468 13.6979V14.4765ZM447.075 23.2378C446.839 23.4502 446.497 23.4653 446.23 23.3238C445.043 22.3329 444.832 21.8728 444.177 20.9274C442.215 22.9396 440.827 23.5412 438.281 23.5412C435.272 23.5412 432.928 21.6757 432.928 17.9396C432.928 15.0225 434.502 13.0356 436.741 12.065C438.683 11.2055 441.395 11.0538 443.468 10.8162V10.3511C443.468 9.4967 443.533 8.48558 443.035 7.74746C442.598 7.08518 441.762 6.81217 441.028 6.81217C439.664 6.81217 438.447 7.5149 438.15 8.97092C438.09 9.29448 437.853 9.61298 437.531 9.62815L434.06 9.25403C433.768 9.18831 433.446 8.95069 433.526 8.50075C434.326 4.27426 438.125 3.00024 441.526 3.00024C443.267 3.00024 445.541 3.46536 446.914 4.78993C448.655 6.42289 448.489 8.60186 448.489 10.9729V16.5746C448.489 18.2581 449.183 18.9962 449.838 19.9062C450.069 20.2298 450.119 20.619 449.827 20.8617C449.098 21.4734 447.8 22.6109 447.085 23.248L447.075 23.2378" fill="#2D2D2D"/>
</g>
<g clip-path="url(#clip1_902_216)">
<path d="M347.622 20.0034C347.523 19.8986 347.405 19.8124 347.276 19.7493C346.347 19.1943 345.436 18.6117 344.484 18.1051C343.822 17.7628 343.134 17.4738 342.426 17.2407C341.562 16.9433 341.062 16.2811 341.178 15.3769C341.204 15.244 341.196 15.1066 341.154 14.9777C341.112 14.8488 341.038 14.7327 340.939 14.6404C340.616 14.3188 340.635 14.2566 341.1 13.9903C341.013 13.8052 340.941 13.6132 340.886 13.4163C340.861 13.2708 340.876 13.1213 340.931 12.9841C341.076 12.6141 341.266 12.2631 341.404 11.8914C341.51 11.6044 341.404 11.4315 341.059 11.4263C340.09 11.395 339.141 11.1481 338.28 10.7036C337.817 10.5047 337.366 10.2813 336.927 10.0346C336.2 9.57467 335.476 9.6421 334.741 9.94639C334.591 10.0086 334.492 10.1936 334.369 10.3233L334.435 10.446L333.225 10.37C332.953 10.3527 332.647 10.2472 332.418 10.3371C332.006 10.4962 331.629 10.4339 331.235 10.3596L329.527 10.0328C329.667 10.4495 329.437 10.4236 329.224 10.3786C328.878 10.3198 328.519 10.2299 328.163 10.1815C327.907 10.1452 327.644 10.1521 327.279 10.1366L327.649 10.6241C326.979 10.8981 326.243 10.9657 325.534 10.8181C324.826 10.6706 324.177 10.3146 323.673 9.79597C322.635 8.67218 322.35 7.26658 322.226 5.81948C322.068 4.0024 322.521 2.30807 323.349 0.700188C323.436 0.505653 323.51 0.305853 323.571 0.101986L323.432 0.00170898C323.214 0.120058 323.005 0.255935 322.808 0.408003C321.865 1.23073 321.238 2.35612 321.034 3.59092C320.92 4.28249 320.948 4.99652 320.882 5.69673C320.87 5.83504 320.723 5.96298 320.638 6.09438C320.531 5.97854 320.348 5.86962 320.334 5.7486C320.277 5.25067 320.268 4.74583 320.253 4.24445C320.243 3.95053 320.253 3.65835 320.253 3.25724C320.046 3.39213 319.871 3.57011 319.739 3.77899C319.608 3.98787 319.523 4.22273 319.49 4.46748C319.202 5.91285 319.413 7.27177 320.263 8.50621C320.367 8.6826 320.46 8.86568 320.54 9.05427L320.367 9.158C320.128 8.90347 319.908 8.63126 319.71 8.34369C319.452 7.91319 319.266 7.43947 319.018 6.9986C318.912 6.84633 318.788 6.70707 318.648 6.58366C318.581 6.77557 318.508 6.96575 318.45 7.15939C318.442 7.21723 318.446 7.27613 318.462 7.33228C318.623 8.53215 319.178 9.64447 320.04 10.4945C321.055 11.5093 322.269 12.2113 323.572 12.7818C323.712 12.844 323.93 12.9841 323.929 13.0844C323.947 13.7005 323.902 14.3169 323.795 14.9239C323.548 16.02 322.461 16.3797 321.537 15.7279C320.967 15.3233 320.773 15.3129 320.279 15.8402C319.784 16.3664 319.151 16.7437 318.453 16.9294C317.817 17.1023 317.186 17.3133 316.551 17.5242C316.224 17.6295 315.904 17.7601 315.597 17.9149C315.478 17.9772 315.412 18.1449 315.322 18.2607L315.645 18.4872L315.127 18.8451L315.486 19.1338C315.449 19.1837 315.418 19.2376 315.393 19.2946C315.355 19.4156 315.327 19.5401 315.294 19.6628C315.429 19.6871 315.578 19.7597 315.694 19.7251C315.967 19.634 316.232 19.5213 316.487 19.388C317.544 18.8693 318.614 18.3506 319.648 17.7922C320.682 17.2337 321.626 17.3271 322.63 17.8907C323.196 18.2071 323.858 18.3679 324.49 18.5442C325.025 18.6929 325.516 18.5149 325.943 18.1708C326.323 17.8631 326.697 17.5467 327.079 17.2389C327.37 16.9876 327.719 16.8137 328.095 16.7333C328.471 16.6529 328.861 16.6686 329.229 16.779C329.631 16.9076 330.024 17.0606 330.407 17.2372C331.164 17.5536 331.899 17.9288 332.673 18.195C333.862 18.6278 335.159 18.6654 336.372 18.3022C337.347 17.9962 338.147 18.0757 338.792 18.9194C339.105 19.324 339.484 19.4381 340.013 19.2808C341.2 18.9211 342.373 18.9488 343.481 19.5937C343.979 19.8841 344.477 20.1763 344.992 20.4305C345.473 20.6615 345.966 20.8653 346.47 21.0408C346.636 21.0795 346.809 21.0672 346.968 21.0055C347.127 20.9438 347.263 20.8355 347.359 20.695L347.895 20.4858C347.817 20.3177 347.726 20.1564 347.622 20.0034Z" fill="#2D2D2D"/>
<path d="M359.463 25.8143C359.159 25.5996 358.832 25.422 358.486 25.2853C358 25.1124 357.485 25.0311 356.99 24.8841C355.778 24.5267 354.488 24.5267 353.275 24.8841C351.183 25.4979 349.471 26.7012 348.529 28.7759C348.419 29.0197 348.431 29.3274 348.296 29.5522C347.777 30.4339 347.865 31.4108 347.777 32.7749C347.851 33.2278 347.991 34.0716 348.133 34.9153C348.368 36.307 349.212 37.3202 350.293 38.1085C351.401 38.9159 352.554 39.6179 354.025 39.7354C355.082 39.8219 356.091 40.0069 357.175 39.789C358.351 39.5539 359.281 38.9851 360.127 38.2123C360.443 37.9236 360.676 37.5449 360.983 37.2424C362.118 36.122 362.642 34.7199 362.853 33.1829C363.064 31.6459 362.781 30.2299 362.203 28.8139C361.655 27.4481 360.628 26.5733 359.463 25.8143ZM357.976 35.3233C356.991 36.0768 355.749 36.4127 354.518 36.2586C352.928 36.0633 352.118 35.1366 351.579 33.6877C351.109 32.4308 351.352 31.3243 351.79 30.1815C351.875 29.9672 352.006 29.7746 352.175 29.6179C352.855 28.9903 353.502 28.4232 354.551 28.3056C355.393 28.2106 356.162 28.3679 356.913 28.5339C358.023 28.7794 358.631 29.7095 358.975 30.733C359.183 31.3485 359.195 32.0297 359.292 32.659C359.188 33.7482 358.773 34.7389 357.976 35.3302V35.3233Z" fill="#2D2D2D"/>
<path d="M334.478 6.03217C334.395 6.13418 334.37 6.42809 334.439 6.48169C334.739 6.69333 335.053 6.88618 335.378 7.05914C335.473 7.2061 335.587 7.41357 335.723 7.42394C336.211 7.46371 336.704 7.4395 337.231 7.4395L336.41 8.41979L336.74 8.56329L336.204 8.98342C336.334 9.05949 336.399 9.1079 336.472 9.14075C337.061 9.407 337.661 9.65078 338.239 9.9395C339.146 10.381 340.119 10.6729 341.119 10.804C341.52 10.8627 341.79 10.7555 341.899 10.332C341.96 10.1096 342.043 9.89404 342.148 9.68881C342.383 9.18216 342.716 8.72721 343.129 8.35031C343.541 7.9734 344.024 7.68204 344.549 7.4931C345.772 7.04531 346.349 6.2016 346.223 4.96025C346.185 4.58162 345.993 4.40527 345.635 4.4312C345.233 4.45321 344.833 4.5023 344.437 4.57816C343.761 4.71647 343.209 4.59718 342.727 4.05949C342.186 3.44572 341.517 3.03943 340.635 3.1691C340.102 3.23685 339.563 3.11901 339.107 2.83542C338.783 2.65216 338.436 2.44123 338.083 2.40319C336.942 2.24558 335.785 2.53011 334.847 3.19849C334.708 3.3236 334.58 3.46072 334.465 3.60824C334.726 3.69123 334.9 3.74137 335.068 3.80534C335.154 3.83819 335.301 3.90216 335.3 3.94538C335.284 4.32055 335.585 4.29116 335.801 4.35167C335.974 4.40181 336.147 4.4312 336.311 4.47097L336.328 4.59026C335.932 4.87034 335.531 5.14178 335.144 5.43397C334.9 5.60754 334.677 5.80822 334.478 6.03217ZM345.853 4.94642C345.853 5.04151 345.912 5.24033 345.839 5.3164C345.703 5.46807 345.521 5.57025 345.32 5.60686C345.172 5.63405 345.019 5.60713 344.889 5.53098C344.759 5.45483 344.66 5.33452 344.612 5.19192L345.853 4.94642Z" fill="#2D2D2D"/>
<path d="M318.761 21.3676C318.961 21.3396 319.157 21.288 319.345 21.2137C319.902 20.9129 320.452 20.5999 320.986 20.2628C321.712 19.8046 322.478 19.5021 323.348 19.5712C323.764 19.6139 324.178 19.6791 324.587 19.7666C325.751 19.9983 326.738 19.7355 327.561 18.8364C328.014 18.3764 328.495 17.945 329.001 17.5449C329.236 17.3461 329.184 17.1663 328.948 17.1023C328.681 17.0133 328.393 17.0037 328.121 17.0747C327.801 17.1993 327.511 17.3929 327.274 17.6418C326.138 18.8053 324.854 19.343 323.215 18.8261C322.678 18.6597 322.124 18.5547 321.563 18.5131C321.195 18.4702 320.821 18.53 320.485 18.686C319.658 19.1338 318.842 19.6335 318.666 20.7088L318.948 20.8178L318.704 21.2362L318.761 21.3676Z" fill="#2D2D2D"/>
<path d="M343.147 15.2092C342.746 15.1832 342.348 15.1072 341.949 15.0761C341.674 15.0553 341.558 15.2057 341.591 15.4806C341.616 15.7932 341.749 16.0873 341.968 16.3114C342.188 16.5355 342.479 16.6753 342.791 16.7064C343.204 16.7531 343.623 16.7445 344.038 16.7825C345.051 16.8741 346.066 16.9658 347.077 17.0868C347.392 17.1248 347.689 17.2372 347.616 16.7496L348.279 16.8637L348.126 16.4039L348.799 16.3399C348.757 16.1595 348.658 15.9971 348.518 15.8763C348.377 15.7554 348.202 15.6822 348.017 15.6673C347.027 15.5135 346.029 15.4011 345.032 15.306C344.406 15.2455 343.778 15.2524 343.147 15.2092Z" fill="#2D2D2D"/>
<path d="M320.633 34.1166C321.75 33.9973 322.869 33.8987 323.987 33.8019C325.853 33.6394 327.718 33.4907 329.582 33.3247C330.127 33.2763 330.253 33.1518 330.298 32.5969C330.412 31.3171 330.258 30.0276 329.847 28.8105C329.314 27.2735 328.246 26.0806 326.862 25.249C325.44 24.3932 323.852 24.139 322.194 24.3672C320.945 24.5247 319.772 25.0576 318.832 25.8956C318.304 26.3659 317.874 26.9468 317.424 27.4966C316.633 28.4648 316.297 29.6266 316.142 30.8334C315.97 32.1342 316.053 33.4559 316.385 34.7251C316.828 36.435 317.737 37.8372 319.169 38.7967C319.418 38.9642 319.679 39.115 319.949 39.248C320.094 39.3206 320.241 39.3863 320.389 39.4468C321.45 39.8744 322.592 40.0576 323.733 39.9827C323.83 39.9827 323.928 39.9931 324.024 39.9827C324.056 39.981 324.088 39.9775 324.12 39.9724C325.082 39.8202 326.09 39.7995 326.994 39.4727C328.5 38.9368 329.433 37.704 330.196 36.3434C330.331 36.1065 330.298 35.9406 330.066 35.8057C329.618 35.5464 329.184 35.2576 328.719 35.0329C327.701 34.5401 327.682 34.5419 326.911 35.3787C326.402 35.9182 325.717 36.2574 324.98 36.3348C324.519 36.3981 324.061 36.4489 323.607 36.4869C322.224 36.6027 321.083 36.1653 320.244 35.0346C319.845 34.4865 319.964 34.1805 320.633 34.1166ZM319.784 30.3216C320.049 29.222 320.822 28.6273 321.814 28.221C322.769 27.8247 323.839 27.8049 324.809 28.1657C325.879 28.5374 326.624 29.2359 326.854 30.4945C326.143 30.5377 325.488 30.5827 324.831 30.619C323.296 30.702 321.76 30.7821 320.223 30.8593C319.784 30.8835 319.681 30.7556 319.784 30.3216Z" fill="#2D2D2D"/>
<path d="M314.146 34.2669C313.91 33.5149 313.538 32.8838 312.883 32.4153C312.71 32.2925 312.507 32.1473 312.749 31.8966C313.132 31.5081 313.431 31.0451 313.628 30.5362C313.824 30.0273 313.913 29.4834 313.891 28.9384C313.891 28.1535 313.744 27.4896 313.225 26.9156C312.015 25.5757 310.611 24.6525 308.707 24.6922C307.67 24.7147 306.615 24.6369 305.569 24.6162C304.867 24.6023 304.164 24.6162 303.462 24.6041C303.177 24.6041 303.069 24.7009 303.066 25.0121C303.052 26.8949 303.011 28.7794 302.979 30.6639C302.953 32.2441 302.933 33.8226 302.902 35.4028C302.902 35.6898 302.826 35.9751 302.836 36.2673C302.864 37.0695 302.917 37.87 302.959 38.6722H302.914C302.914 38.9315 302.931 39.1909 302.914 39.4502C302.883 39.8046 303 39.955 303.374 39.9049C303.643 39.8679 303.915 39.8615 304.186 39.8859C306.126 40.0588 308.064 39.9516 309.995 39.7908C312.105 39.6179 313.508 38.4976 314.183 36.4799C314.41 35.7578 314.398 34.9812 314.146 34.2669ZM306.529 28.6756C306.529 28.3299 306.665 28.157 307.06 28.2106C307.392 28.2368 307.726 28.2397 308.059 28.2192C308.438 28.2555 308.953 28.2936 309.465 28.3593C309.795 28.4007 310.064 28.603 310.07 28.9333C310.075 29.3556 310.016 29.7764 309.897 30.1815C309.848 30.2736 309.778 30.3529 309.692 30.4129C309.607 30.473 309.509 30.5122 309.406 30.5273C308.566 30.6207 307.718 30.6622 306.873 30.7192C306.827 30.7286 306.78 30.7268 306.735 30.714C306.69 30.7013 306.649 30.6779 306.615 30.6458C306.581 30.6137 306.555 30.574 306.54 30.5299C306.525 30.4858 306.52 30.4386 306.527 30.3924C306.527 29.8236 306.524 29.2496 306.529 28.6756ZM309.283 36.3537C308.792 36.4402 308.285 36.4454 307.786 36.4868V36.4142C307.454 36.4142 307.124 36.4142 306.793 36.4142C306.567 36.4142 306.496 36.3122 306.505 36.0961C306.527 35.5066 306.551 34.917 306.544 34.3292C306.535 34.276 306.538 34.2214 306.552 34.1693C306.567 34.1173 306.592 34.069 306.628 34.0281C306.663 33.9871 306.707 33.9544 306.756 33.9323C306.805 33.9103 306.859 33.8994 306.913 33.9004C307.8 33.8226 308.688 33.7379 309.577 33.6999C309.98 33.6826 310.362 34.2358 310.419 34.8133C310.5 35.6587 310.118 36.2085 309.283 36.3537Z" fill="#2D2D2D"/>
<path d="M346.047 35.4322C345.393 35.1141 344.696 34.879 344.013 34.6214C343.668 34.4865 343.401 34.6214 343.139 34.8928C342.759 35.3019 342.336 35.6677 341.876 35.9838C341.066 36.5128 340.13 36.537 339.209 36.4108C338.517 36.3174 337.788 36.2604 337.234 35.7659C335.867 34.5436 335.53 32.9997 335.931 31.2708C336.014 30.9063 336.151 30.5566 336.339 30.2334C336.56 29.8565 336.8 29.4329 337.146 29.1961C338.638 28.1777 340.796 27.9668 342.347 29.0526C342.518 29.1841 342.704 29.2949 342.902 29.3828C342.97 29.4129 343.044 29.4285 343.119 29.4285C343.193 29.4285 343.267 29.4129 343.336 29.3828C344.05 28.8503 344.753 28.3022 345.436 27.73C345.483 27.6629 345.511 27.5852 345.519 27.5041C345.527 27.423 345.514 27.3413 345.481 27.2666C345.108 26.8344 344.762 26.3071 344.28 26.0564C342.834 25.2991 341.365 24.5246 339.657 24.7026C338.002 24.6802 336.584 25.3043 335.232 26.1445C333.95 26.9253 333.028 28.1822 332.67 29.6404C332.491 30.2776 332.357 30.9263 332.267 31.582C332.139 32.6193 332.113 33.648 332.468 34.6542C332.748 35.4708 333.145 36.2429 333.645 36.9468C334.127 37.6176 334.627 38.2469 335.322 38.7068C337.162 39.917 339.167 40.2092 341.315 39.8548C343.507 39.4917 345.192 38.4111 346.328 36.4938C346.655 35.9509 346.631 35.7175 346.047 35.4322Z" fill="#2D2D2D"/>
</g>
<g clip-path="url(#clip2_902_216)">
<path d="M232.218 30.2762C231.688 31.499 231.062 32.6245 230.336 33.6594C229.347 35.0701 228.536 36.0467 227.912 36.5889C226.944 37.479 225.907 37.9349 224.797 37.9608C224 37.9608 223.038 37.734 221.919 37.2738C220.796 36.8158 219.764 36.5889 218.821 36.5889C217.832 36.5889 216.77 36.8158 215.635 37.2738C214.498 37.734 213.583 37.9738 212.882 37.9975C211.818 38.0429 210.756 37.5741 209.697 36.5889C209.02 35.9991 208.175 34.9881 207.161 33.5557C206.074 32.0261 205.18 30.2524 204.48 28.2302C203.73 26.046 203.354 23.931 203.354 21.8833C203.354 19.5378 203.861 17.5147 204.877 15.8194C205.674 14.4577 206.736 13.3836 208.064 12.595C209.393 11.8065 210.828 11.4046 212.374 11.3789C213.22 11.3789 214.329 11.6405 215.707 12.1547C217.082 12.6706 217.964 12.9323 218.351 12.9323C218.64 12.9323 219.621 12.6263 221.283 12.0164C222.854 11.4508 224.181 11.2167 225.268 11.3089C228.212 11.5466 230.425 12.7074 231.896 14.7986C229.262 16.3943 227.96 18.6293 227.985 21.4964C228.009 23.7296 228.819 25.588 230.412 27.0636C231.133 27.7485 231.939 28.2778 232.836 28.6537C232.641 29.2176 232.436 29.7577 232.218 30.2762ZM225.464 3.70075C225.464 5.45115 224.825 7.08549 223.55 8.59822C222.012 10.3966 220.151 11.4357 218.134 11.2717C218.108 11.0618 218.093 10.8407 218.093 10.6085C218.093 8.92812 218.825 7.12978 220.124 5.65939C220.772 4.91491 221.597 4.29588 222.597 3.80207C223.596 3.31563 224.54 3.04662 225.428 3.00055C225.453 3.23455 225.464 3.46857 225.464 3.70073V3.70075Z" fill="#2D2D2D"/>
</g>
<path fill-rule="evenodd" clip-rule="evenodd" d="M117.682 13.3269C117.682 12.7011 117.178 12.1943 116.552 12.1943H114.877C114.25 12.1943 113.746 12.7033 113.746 13.3291V30.8471C113.746 31.4736 114.251 31.9804 114.877 31.9804H116.553C117.178 31.9804 117.682 31.4708 117.682 30.8457V13.3269ZM119.818 13.7924V14.6256C119.818 14.9692 120.099 15.2479 120.444 15.2479H131.999C132.527 15.2479 132.954 14.8224 132.954 14.2956V12.8857C132.954 12.3583 132.522 11.8814 131.999 11.9335C131.999 11.9335 120.827 13.0297 120.469 13.0696C120.289 13.0855 120.122 13.1688 120.001 13.3029C119.88 13.437 119.815 13.6119 119.818 13.7924ZM110.462 31.9811C107.588 31.9811 105.778 29.8007 105.778 27.3744L105.776 20.3649H104.954C104.85 20.365 104.747 20.3446 104.651 20.3049C104.554 20.2651 104.467 20.2068 104.393 20.1333C104.32 20.0598 104.261 19.9724 104.221 19.8763C104.181 19.7802 104.161 19.6771 104.161 19.573V18.3998C104.161 17.9614 104.517 17.6086 104.957 17.6086L105.776 17.61L105.775 13.3006C105.775 12.6904 106.266 12.1958 106.878 12.1958H108.512C109.121 12.1958 109.615 12.694 109.615 13.3041V17.6108L112.161 17.61C112.599 17.61 112.957 17.9622 112.957 18.4012V19.5745C112.957 20.0135 112.601 20.3664 112.164 20.3664L109.615 20.3657L109.618 26.8491C109.618 28.1214 110.389 28.9903 111.766 28.9903H111.998C112.474 28.9903 112.862 29.3731 112.862 29.8492V31.1215C112.862 31.5991 112.476 31.9818 112 31.9818H110.462V31.9811ZM83.5419 17.1047C78.8945 17.1047 76.2886 20.7413 76.2886 24.5739C76.2886 28.6581 79.0798 32.2527 83.5725 32.2527C86.6475 32.2527 89.6782 30.6325 90.2506 27.9731C90.3283 27.6139 90.0866 27.1435 89.5813 27.1406L87.3831 27.142C86.9846 27.142 86.6589 27.3331 86.4629 27.621C85.8335 28.5427 84.9133 29.0323 83.5518 29.0323C81.6266 29.0323 80.293 27.5163 80.1925 25.8348H89.535C90.3953 25.8348 90.7809 25.3672 90.7809 24.5732C90.7809 20.8375 88.5677 17.1047 83.5419 17.1047ZM83.5419 20.1041C85.2568 20.1041 86.738 21.3243 86.8884 22.9758H80.2203C80.3707 21.3243 81.8269 20.1041 83.5419 20.1041ZM126.117 17.1047C121.469 17.1047 118.862 20.7413 118.862 24.5739C118.862 28.6581 121.654 32.2527 126.146 32.2527C129.221 32.2527 132.252 30.6325 132.824 27.9731C132.902 27.6139 132.661 27.1435 132.155 27.1406L129.958 27.142C129.558 27.142 129.233 27.3331 129.037 27.621C128.407 28.5427 127.487 29.0323 126.126 29.0323C124.2 29.0323 122.867 27.5163 122.766 25.8348H132.109C132.969 25.8348 133.355 25.3672 133.355 24.5732C133.355 20.8375 131.141 17.1047 126.117 17.1047ZM126.117 20.1041C127.831 20.1041 129.313 21.3243 129.462 22.9758H122.794C122.944 21.3243 124.4 20.1041 126.117 20.1041Z" fill="#2D2D2D"/>
<path fill-rule="evenodd" clip-rule="evenodd" d="M102.634 12.3903H72.3696C71.6818 12.3903 71.1266 12.9492 71.1266 13.637L71.2299 25.5227C71.2299 25.5227 64.7093 13.7425 64.3693 13.1423C64.0493 12.5771 63.3629 12.056 62.412 12.056H59.9237C59.2352 12.056 58.6785 12.6149 58.6785 13.3027L58.6799 30.7339C58.6799 31.4217 59.2359 31.9798 59.9244 31.9798H61.5203C61.8509 31.9791 62.1677 31.8471 62.401 31.613C62.6344 31.3788 62.7652 31.0616 62.7649 30.731L62.6644 18.5117C62.6644 18.5117 69.2484 30.4081 69.5299 30.8771C69.9098 31.5108 70.5535 31.9798 71.4844 31.9798H73.7703C74.4595 31.9798 75.0148 31.4217 75.0148 30.7339L75.0134 15.3448H102.635C102.747 15.3451 102.857 15.3234 102.96 15.2809C103.064 15.2384 103.157 15.1759 103.236 15.0971C103.315 15.0184 103.378 14.9248 103.421 14.8217C103.464 14.7187 103.486 14.6082 103.486 14.4966V13.2385C103.485 13.0131 103.395 12.7972 103.235 12.6381C103.076 12.4791 102.859 12.3899 102.634 12.3903Z" fill="#2D2D2D"/>
<path fill-rule="evenodd" clip-rule="evenodd" d="M97.7347 19.9587C99.0505 19.9587 100.035 20.4363 100.39 21.261C100.56 21.658 100.89 21.7343 101.342 21.7343H103.152C103.453 21.7343 103.793 21.477 103.793 21.0856C103.793 18.9815 101.286 17.1033 97.7333 17.1033C94.0582 17.1033 91.6454 18.8546 91.6454 21.6423C91.6454 23.7764 93.3297 25.0459 95.4025 25.5876C96.3477 25.8356 97.9614 26.2334 98.7462 26.4394C99.593 26.6618 100.35 26.9198 100.35 27.6461C100.35 28.7901 99.1418 29.18 97.826 29.18C96.5772 29.18 95.3341 28.6219 94.9777 27.7324C94.7703 27.2156 94.4096 27.1408 93.8615 27.1408H92.0211C91.6996 27.1408 91.3304 27.4166 91.3304 27.8357V28.0724C91.3304 30.1088 94.0618 32.2407 97.8288 32.2407C100.5 32.2407 104.223 31.1309 104.223 27.5478C104.223 25.4721 102.835 24.0352 100.576 23.4621C99.692 23.2383 97.5687 22.698 97.1068 22.5782C96.2828 22.3651 95.5158 22.0964 95.5158 21.3907C95.5158 20.3222 96.5031 19.9587 97.7347 19.9587ZM30.7416 8.36312C30.9025 8.36312 31.0568 8.29922 31.1705 8.18546C31.2843 8.07171 31.3482 7.91742 31.3482 7.75655C31.3482 7.59567 31.2843 7.44139 31.1705 7.32763C31.0568 7.21387 30.9025 7.14997 30.7416 7.14997C30.5808 7.14997 30.4265 7.21387 30.3127 7.32763C30.199 7.44139 30.1351 7.59567 30.1351 7.75655C30.1351 7.91742 30.199 8.07171 30.3127 8.18546C30.4265 8.29922 30.5808 8.36312 30.7416 8.36312ZM22.5959 7.28896C22.7313 7.28896 22.8611 7.23519 22.9568 7.13948C23.0525 7.04377 23.1063 6.91396 23.1063 6.7786C23.1063 6.64325 23.0525 6.51344 22.9568 6.41773C22.8611 6.32202 22.7313 6.26825 22.5959 6.26825C22.4606 6.26825 22.3308 6.32202 22.2351 6.41773C22.1394 6.51344 22.0856 6.64325 22.0856 6.7786C22.0856 6.91396 22.1394 7.04377 22.2351 7.13948C22.3308 7.23519 22.4606 7.28896 22.5959 7.28896ZM16.4895 19.7684L16.2408 19.5018C16.9336 18.8582 17.667 17.8318 17.7861 17.2295C17.8966 16.6692 18.702 16.7583 18.5488 17.3678C18.3542 18.1468 17.4005 19.0877 16.4895 19.7684ZM11.3211 7.50137C10.046 8.05306 9.85921 9.36031 10.7538 10.1451C11.8322 11.0902 13.6106 10.267 13.4395 8.82002C14.8858 8.89415 15.8188 7.40015 15.5886 6.35093C16.2322 5.79995 16.2964 4.62243 15.5244 4.15983C14.6969 3.66444 13.9178 3.85404 13.4217 4.80989C12.0966 4.71366 10.8272 5.75575 11.3211 7.50137L10.7074 7.23336C9.89841 5.54121 11.3154 3.8127 13.0532 4.21115C13.1791 3.93854 13.3624 3.69633 13.5905 3.50108C13.8186 3.30583 14.0862 3.16215 14.375 3.07986C14.6638 2.99756 14.967 2.97859 15.2637 3.02425C15.5605 3.06991 15.8439 3.17911 16.0946 3.3444C17.2101 4.02012 17.4461 5.7636 16.26 6.60896C16.8195 8.23625 15.704 9.56559 14.0069 9.41377C13.808 11.5065 11.8336 11.7767 10.5584 10.783C9.83854 10.2221 9.54416 9.44442 9.40517 8.8578C9.25904 8.23696 9.25904 7.68099 8.64605 7.04162C8.18488 6.55907 7.35876 6.57546 7.35876 6.57546C7.35876 5.05509 5.93676 3.66373 4.1712 4.33731C3.54537 3.79845 2.772 3.74499 2.21817 4.41144C1.89599 4.79848 1.71851 5.81563 2.71141 6.28179C2.66009 7.66745 3.71644 8.55201 5.26104 8.42942C5.32163 9.16572 6.13777 9.85 6.86124 9.94765L6.85483 10.3176C6.08288 10.2435 5.66519 10.5129 5.15056 11.1508C3.3351 11.0653 2.06349 11.8729 2.11624 13.1751C0.840357 13.4175 0.601575 14.7533 1.32505 15.4646C2.04853 16.176 3.10915 15.8973 3.47053 15.0476C4.75782 15.2928 5.89471 14.3705 5.94674 13.3063C7.14921 13.3063 7.67524 12.8309 7.87197 11.7253L8.32601 11.7624C8.46001 12.9528 7.90903 14.0825 6.4742 13.9478C6.43713 15.3691 5.0579 16.1639 3.77132 15.6727C3.17045 16.8011 1.79406 17.2523 0.638639 16.151C-0.47758 15.0875 -0.0698674 13.2664 1.3892 12.8252C1.4227 11.4317 2.45196 10.108 4.45132 10.6184C4.45132 10.6184 4.70863 9.99612 5.33446 9.95905C4.91748 9.78798 4.60172 9.55776 4.51547 9.12866C3.00722 9.45013 1.72635 8.06162 2.0692 6.66385C0.708492 5.9475 0.686396 4.60318 1.3614 3.80415C2.06492 2.97233 3.23674 2.78843 4.28524 3.68511C6.06078 2.70147 8.06798 3.90607 7.94538 5.92896C9.18705 5.84628 9.94118 6.93185 9.8029 8.06233C10.0075 7.56409 10.247 7.33315 10.706 7.23336L11.3211 7.50137Z" fill="#2D2D2D"/>
<path fill-rule="evenodd" clip-rule="evenodd" d="M14.3718 5.07367L14.6719 5.28822C14.0896 6.51706 13.0589 7.82216 12.1764 8.53994L11.8393 8.28619C12.4651 7.26833 13.808 5.5883 14.3718 5.07367ZM5.68441 11.823L5.88684 12.1231C5.15124 12.8772 3.78983 13.883 3.06706 14.2322L2.7848 13.9257C3.48404 13.1716 4.8198 12.1844 5.68441 11.823ZM7.44356 8.17143L7.08859 8.6105C6.12562 7.97898 4.22534 6.28113 3.79695 5.66884L4.09632 5.36306C5.01653 5.82922 6.81203 7.43013 7.44356 8.17143ZM5.65732 24.2832C5.76709 24.8342 5.67514 25.4443 6.17195 26.0402C6.3473 26.2491 7.31169 27.5185 8.01094 28.1743C7.06079 28.5485 5.16051 29.3212 3.79268 29.4929C3.51897 29.5279 3.21104 29.7196 2.95302 29.8672C2.78195 30.1594 2.60518 30.6819 2.53105 31.272C2.4783 31.694 2.48543 32.163 2.48543 32.642C2.48543 33.064 2.70853 34.3905 3.1804 35.2815C3.65297 36.1724 4.1063 36.5709 4.66441 36.8311C4.77489 36.7826 5.01795 36.7462 5.39715 36.7377C6.42998 36.7142 7.23828 37.2851 7.59467 37.7748C7.73081 37.963 8.00452 38 8.36448 38C9.19772 38 10.1144 37.7256 10.9847 37.3942C11.1707 37.2409 11.6953 36.8916 12.2107 36.4868C12.7253 36.0833 15.5942 33.6499 16.8637 33.0355C17.5323 33.3976 18.63 33.8637 19.7633 33.8637C19.8289 33.8637 20.047 33.8666 20.2787 33.8153C20.6329 33.7347 21.087 33.5772 21.6579 33.4646C22.6808 33.2657 23.8804 33.0904 24.2303 33.0954C25.1712 33.1103 27.929 33.1816 28.5826 33.1816C29.2683 33.1816 30.2462 33.1217 30.6197 33.0854C31.1971 32.8944 32.4837 32.538 33.7161 31.9692C34.9456 31.4246 37.5345 29.6277 37.9579 29.2171C38.1639 29.0332 38.3463 28.8315 38.481 28.6519C38.5317 28.582 38.5502 28.5542 38.5502 28.4986L38.5359 26.6831C38.5359 26.6831 39.1546 25.9967 39.3913 25.7587C39.4141 25.7366 39.4155 25.7045 39.4119 25.6824C39.3057 25.3303 39.1995 24.2347 39.2601 23.1235L38.6336 22.8313C38.6053 23.9985 38.259 25.1358 37.6321 26.1208C36.7005 26.2683 34.9228 26.8193 34.2827 27.5478L34.6349 27.6483C35.2357 27.3168 35.8794 27.0844 36.615 27.0844C37.265 27.0844 37.5516 27.2555 37.5516 27.438C37.5516 27.5663 37.429 27.8735 37.3819 27.9711C37.3256 28.0823 37.2886 28.2242 37.1795 28.3425C36.2912 29.3173 35.2502 30.1411 34.0974 30.7817C33.2806 31.2386 32.51 31.5458 31.3054 31.8872C30.9448 31.9891 30.4501 32.1352 30.1286 32.2464C29.6746 32.2322 27.3024 32.163 25.9168 32.163C24.5319 32.163 21.675 32.3647 20.7669 32.5943C20.3549 32.6983 20.2523 32.8644 19.7733 32.8644C18.8788 32.8644 17.7048 32.4104 16.9842 32.0611C16.8801 32.0918 16.6192 32.2072 16.3591 32.337C15.8473 32.5914 14.7097 34.1702 14.0482 33.6927C13.7104 34.3848 12.252 35.0405 11.7531 35.7583C11.8079 35.3827 12.3967 32.945 12.4523 32.4574C12.4623 32.3712 12.4694 32.3013 12.4145 32.2094C11.8821 31.3198 10.3938 30.7546 9.55483 30.5906C9.3082 30.5422 9.18703 30.5087 9.02166 30.4709L7.69802 30.071L6.4699 30.4709L7.88691 30.7425L6.08856 31.9342C6.40075 31.8145 8.33882 31.277 8.48209 31.2343C8.64032 31.1872 8.85202 31.1409 9.08296 31.2214C9.34669 31.3134 10.0944 31.4845 10.5392 31.6391C10.8008 31.7297 11.2292 32.2101 11.3396 32.466C11.3845 32.5729 11.4017 32.7974 11.4309 33.2942C11.4487 33.6071 11.3689 34.0419 11.2933 34.3798C11.0952 35.2636 10.6931 35.9543 10.5663 36.201C10.3909 36.541 10.1486 36.6507 9.90979 36.7633C9.51776 36.9472 9.03877 37.0627 8.50632 37.0698C8.14066 37.0741 7.89618 37.0549 7.74008 36.8432C7.24897 36.1803 6.03581 35.5373 4.79699 35.7768C4.03716 35.3171 3.28375 33.8331 3.28375 32.6513C3.28375 31.9428 3.64157 30.8259 3.83402 30.2649C5.07141 30.0995 7.5462 29.1565 8.75009 28.6098C9.00242 28.597 9.69453 28.3525 10.356 28.3525C11.9747 28.3525 13.5806 29.7681 14.5557 30.7246C14.7154 30.4616 15.0155 30.0632 15.843 30.0632C16.9892 30.0632 17.6449 31.1045 17.9735 32.1766L18.5708 31.7425C18.4518 31.0762 18.136 30.4608 17.6642 29.9755C17.2686 29.5799 16.5152 29.2513 15.9257 29.2513C15.5714 29.2513 15.2029 29.3304 14.9706 29.3304C14.1516 29.3304 13.818 28.9655 13.2135 28.5492C12.5606 28.098 11.3461 27.4437 10.4793 27.4437C9.9212 27.4437 9.6703 27.6625 9.20984 27.6639C8.53269 27.6682 8.28108 27.3867 7.95676 26.9832C7.81492 26.8065 7.12922 26.1977 6.94603 25.9533C6.84054 25.8128 6.65379 25.2376 6.58608 24.9497L5.65732 24.2832Z" fill="#2D2D2D"/>
<path fill-rule="evenodd" clip-rule="evenodd" d="M6.58822 24.9497C6.78495 25.16 6.97455 25.3924 7.22046 25.5805C7.45782 25.7602 7.7579 25.9163 8.03945 26.0759C8.43718 26.3012 8.88838 26.5592 9.336 26.701C9.72804 26.8194 10.237 26.8678 10.7145 26.8678C11.3952 26.8678 12.1985 26.7274 12.8636 27.0375C13.3098 27.2463 13.3397 27.7168 13.694 27.8543C14.2457 28.0689 15.7789 28.1188 16.6285 28.1188C18.3114 28.1188 20.1318 27.9056 21.2074 27.6483L20.6828 27.0703C19.9387 27.1886 17.7547 27.4267 16.7525 27.4267C15.3405 27.4267 14.0069 27.2014 14.0069 26.6162C14.0069 26.2128 14.4417 25.629 15.2692 25.629C16.1581 25.629 17.5017 26.1664 17.7497 26.2399C17.9985 26.314 18.0997 26.294 18.2558 26.222L18.7761 25.9533C18.0854 25.6319 15.6812 24.805 14.8437 24.805C14.4474 24.805 14.2328 24.862 13.9755 25.1935C13.6541 25.6069 12.7959 25.984 11.4252 25.984C10.6739 25.984 9.59902 25.85 9.36309 25.753C8.95039 25.5834 8.14209 25.1144 7.62532 24.7409C6.95887 24.2605 6.37866 23.7273 5.9795 23.105C5.86425 22.9267 5.80355 22.7186 5.80487 22.5063C5.8063 22.3445 5.85191 22.1941 5.86831 22.0751C5.98734 22.2404 6.11636 22.3602 6.28101 22.5148C7.00449 23.2191 8.07224 23.748 9.16992 23.9582C9.48284 24.0181 9.76082 24.0652 10.0702 24.0652C10.5385 24.0652 10.9711 23.8143 11.2463 23.5683L10.815 23.0673C10.676 23.1093 10.3881 23.1093 10.1985 23.1093C8.60469 23.1093 6.5818 22.0665 6.11636 20.8612C6.07003 20.7429 6.01443 20.6773 6.06076 20.5675C6.10709 20.4563 6.16483 20.2218 6.19833 20.0058C6.2917 20.1128 6.48415 20.2746 6.72864 20.4321C7.32096 20.812 8.45073 21.338 8.67169 21.4763C9.2412 21.3124 9.66959 21.1213 10.0082 20.946C10.4122 20.7339 10.8612 20.6217 11.3175 20.6188C12.4822 20.6188 13.8208 21.2832 15.0782 21.9026L15.9364 21.564C14.8209 20.7799 12.3931 19.6822 11.0438 19.6822C10.2477 19.6822 9.49923 20.2646 8.96607 20.2646C8.31173 20.2646 6.43711 19.3508 6.43711 18.5888C6.43711 18.0029 7.65027 17.6708 9.60116 17.4305C9.26172 17.9323 8.94238 18.4473 8.64389 18.9744L9.1407 19.2503C12.1964 14.8253 15.3747 11.9521 18.0484 10.2015C19.0192 9.56496 19.2409 9.1936 19.5801 8.49935C20.4084 6.80648 21.1896 5.50494 22.5482 5.50494C23.1826 5.50494 23.7008 5.86062 24.0564 6.30254L25.0401 6.59621L24.0443 7.27051L25.0622 7.67466C23.7343 8.04744 21.9195 9.33901 21.1853 11.2343C19.7697 11.3099 19.0869 12.4553 18.6243 13.4154C18.3121 14.0626 17.816 14.3214 17.0925 14.8111L11.3061 18.8447L12.1023 18.9545L17.4482 15.3749C18.5024 14.6635 19.0042 14.1389 19.2565 13.6335C19.7526 12.6421 20.2865 11.905 21.335 11.905C21.8504 11.905 22.4021 12.126 22.8433 12.5423L23.7806 12.8488L22.757 13.4746L23.6152 14.0013C21.1632 14.7697 19.6429 16.5267 18.7597 19.8861L19.4105 20.0336C19.7362 18.921 20.057 17.901 20.6315 17.0007C22.0528 16.9843 23.4912 16.9323 24.9032 16.9323C28.671 16.9323 31.7987 17.0913 33.4866 17.5881L32.8893 16.551C31.0831 16.2445 28.4629 16.0855 24.9032 16.0855C23.7093 16.0855 22.5004 16.1297 21.2994 16.1425C22.0742 15.3221 23.1904 14.6322 24.9089 14.099L23.6893 13.4275L25.0436 12.6763L23.1982 11.9899C22.8753 11.6998 22.474 11.4339 21.9694 11.307C22.5596 9.49083 24.5732 8.4295 26.5027 7.69818L25.1513 7.14719L26.5148 6.40091L24.4157 5.73089C23.8675 5.08724 23.3394 4.79358 22.5296 4.79358C20.583 4.79358 19.7648 6.48431 18.9928 7.98258C18.5865 8.77163 18.3292 9.10379 17.6385 9.55641C16.1417 10.5358 14.2328 12.0333 12.411 13.9514C11.4587 13.265 9.5142 11.2585 8.98531 10.1637C8.77718 10.421 8.57119 10.982 8.57119 10.982C8.77005 11.1923 11.0617 13.5067 11.9127 14.4875L11.7203 14.7027C10.8129 14.8831 8.45429 15.1097 7.65169 15.0007L7.20121 15.8004C7.80067 15.7413 10.1436 15.4654 11.1158 15.4084C10.8179 15.7693 10.5293 16.138 10.2505 16.5139C7.23685 16.856 5.22466 17.474 5.22466 18.5874C5.22466 18.7706 5.29808 18.9787 5.29808 19.1754C5.29808 19.6416 5.12416 19.8127 4.79272 20.0215C4.57674 20.157 4.5632 20.2518 4.65515 20.3801C4.74781 20.5105 5.21255 21.1976 5.21255 21.333C5.21255 21.5554 4.99087 21.78 4.81196 21.9788C4.65515 22.1542 4.66156 22.2005 4.78416 22.4215L5.65804 24.2783L6.58822 24.9497ZM43.8968 14.6129C43.7043 14.8153 43.5347 15.0313 43.3921 15.2608L42.9067 14.5794C44.5276 12.4197 48.8079 11.4061 51.319 11.2279V10.0696C51.0004 10.168 50.6568 10.2785 50.3389 10.354C49.8885 10.4624 49.475 10.5629 49.1243 10.5536C48.7737 10.545 48.4893 10.4046 48.3581 10.2172C48.021 9.73603 48.3339 9.00899 49.4373 8.32899L48.5669 7.60552C47.8955 8.47654 47.234 9.43738 46.5612 10.0112C45.9496 10.5329 45.3088 10.7931 44.7913 10.4068C44.5126 10.1986 44.4079 10.1038 44.3801 9.56068C44.4171 8.76308 44.9025 7.54421 45.3302 6.75944L44.3002 6.63827C44.117 7.84002 43.6245 8.86501 43.097 9.71037C42.4398 10.7653 41.5924 11.5052 40.7199 12.111L40.1475 11.5472C40.8518 11.1317 41.7335 10.4559 42.3401 9.52434C43.0436 8.44233 43.6145 7.10443 43.6152 5.88913L46.5947 6.17139C46.1763 6.70313 45.4856 7.91629 45.2233 8.78731C45.0871 9.24207 45.0936 9.60345 45.2582 9.72676C45.574 9.96341 46.1271 9.58564 46.6638 9.01042C47.4208 8.19713 48.1621 6.97042 48.4893 6.53277L50.644 8.32044C49.686 8.82794 48.758 9.40744 48.9426 9.73318C49.1115 10.0297 49.7252 9.9406 50.3974 9.73461C50.9541 9.5627 51.4901 9.32963 51.9954 9.03964V11.9521C50.9569 11.9378 49.1978 12.1317 47.5035 12.6456C47.9062 13.2144 49.063 13.4233 49.7979 13.5245L49.4294 15.8881C47.5748 15.109 46.1442 14.6557 43.8968 14.6129L44.6402 13.9743C46.2967 14.0085 47.9568 14.4896 48.8977 14.9629L49.0324 14.0683C48.1849 13.9564 47.1171 13.4746 46.6652 12.9286C45.9275 13.2059 45.229 13.5516 44.6402 13.9743L43.8968 14.6129Z" fill="#2D2D2D"/>
<path fill-rule="evenodd" clip-rule="evenodd" d="M35.0183 22.1219L35.7083 20.6322C34.897 19.6723 34.1548 18.6562 33.4872 17.5915L32.8899 16.5544C31.51 13.9334 32.0125 12.6811 31.2762 11.5278C30.6675 10.5748 27.7108 11.1678 27.2205 11.2705L28.0758 9.85418L26.3901 9.98818L27.8185 8.29105C27.9746 8.07008 28.048 7.86837 28.2134 7.27961C28.4657 6.38506 29.2341 4.85828 31.4843 4.85828C33.9819 4.85828 34.756 6.87902 35.8451 7.75717C37.3322 8.95829 38.7671 10.2225 40.1461 11.5463L40.7184 12.1101C41.4562 12.8643 42.211 13.6398 42.9067 14.5785L43.3921 15.2599C46.3986 19.6493 50.1343 28.0394 51.7858 31.8821C51.9455 32.2534 52.0595 32.6312 52.1586 32.9177C50.9119 32.2234 49.7006 31.4673 48.5291 30.6525L47.7878 30.1308C47.3227 29.7956 46.8629 29.4532 46.4086 29.1036L45.6466 28.5049C45.1882 28.1381 44.7365 27.7632 44.2916 27.3801L45.7949 36.1352C45.9054 36.6506 46.3459 36.5658 46.7015 36.1117C47.0572 35.6577 47.1919 35.5337 47.0572 34.9342L45.6466 28.5049L46.4086 29.1036L47.7607 34.5664C47.8919 35.0589 48.1 35.215 48.676 35.24C49.2526 35.2649 49.3752 35.044 49.2526 34.6648L47.7885 30.1308L48.5298 30.6525L49.9155 34.7246C50.2712 35.7674 49.9155 35.89 49.2904 35.89C48.6653 35.89 48.1015 35.7425 47.7579 35.9642C47.415 36.1844 46.9845 36.7867 46.4699 37.3149C46.0151 37.7796 45.3544 37.6585 45.2197 36.786L43.5582 26.7343C42.4901 25.7791 41.4773 24.7639 40.5246 23.6936C40.1 23.5108 39.6786 23.3205 39.2608 23.1227L38.6343 22.8304C38.4864 22.7593 38.3356 22.6944 38.1824 22.6358C37.7226 23.1882 37.2814 23.8041 36.7668 24.2453C36.4931 24.4805 36.3063 24.6145 35.9022 24.6145C35.7774 24.6145 35.6227 24.6131 35.4788 24.5311C35.3248 24.4449 35.1801 24.271 35.019 24.0258C34.8971 23.839 34.7168 23.6009 34.5593 23.3365C34.2307 22.7855 33.8764 22.0934 33.5571 21.5339C33.1993 20.9045 32.8914 20.4355 32.8493 20.3578C32.7852 20.238 32.6105 20.0905 32.6105 20.0905C32.4352 20.3763 32.3062 20.9273 32.3062 21.2309L31.6811 21.0192C31.7637 20.6058 31.9298 20.0719 32.0211 19.8146C32.0211 19.5937 31.773 19.2993 31.5706 19.2993C31.2855 19.2993 30.9918 19.6122 30.8442 20.2102L30.2099 20.4861C30.284 19.5202 30.614 18.4632 31.5706 18.4632C32.3432 18.4632 32.8215 19.0519 33.1893 19.6036C33.5564 20.1539 34.7617 21.8004 35.0183 22.1219L35.4966 22.7278C35.58 23.1063 35.7404 23.3251 35.8181 23.4463C35.9841 23.7036 36.168 23.6858 36.4161 23.4548C36.5294 23.3507 36.8936 23.0542 37.2465 22.6864C37.553 22.3664 37.8509 21.9779 37.9707 21.7812C38.3214 21.9387 38.975 22.2516 39.501 22.4826C37.2436 19.7013 35.0825 16.3256 34.1451 14.0297C33.7574 13.081 34.5151 12.7631 34.8807 13.6982C35.8744 16.2364 38.7797 20.7241 40.913 23.077C43.3793 25.7985 47.9019 29.7359 50.8442 31.3175C50.418 30.485 49.8542 29.2904 49.2041 27.9054C45.6252 25.8811 42.0079 22.164 40.3221 18.9707L41.0634 19.0562C42.633 21.8311 46.3808 25.5326 48.5954 26.6089C46.5711 22.3129 43.9359 16.868 41.8796 14.5258C39.3285 11.6212 36.543 9.37448 35.2122 8.20551C33.9007 7.05294 33.3604 5.6067 31.4722 5.6067C29.9148 5.6067 29.0965 6.72791 28.7843 7.85981C28.7194 8.08077 28.6831 8.21834 28.527 8.44786L27.7914 9.331L29.3816 9.13784L28.4614 10.4251C28.4614 10.4251 30.9547 9.86559 31.8279 11.0502C32.7673 12.3275 32.1608 13.7617 33.7032 16.5494C34.3818 17.7746 36.0226 19.9779 36.5715 20.4668L35.4959 22.7278L35.0183 22.1219ZM10.5128 22.5075L10.1357 22.2516C10.4525 21.9975 10.8018 21.7868 11.1743 21.6251C11.3747 21.5429 11.5885 21.498 11.8051 21.4925C12.2278 21.4925 12.592 21.6693 12.9477 21.8589C13.5101 22.1583 14.1416 22.5104 14.6256 22.5104C14.8095 22.5104 14.9877 22.4669 15.1958 22.4669C15.6748 22.4669 16.1345 22.6814 16.3975 22.6814C16.5572 22.6814 16.6677 22.5382 16.7725 22.3878C17.0362 22.0079 17.4004 21.7263 17.8659 21.5317C18.3655 21.3229 18.9664 21.2395 19.62 21.2395C20.1347 21.2395 20.6286 21.3136 20.8859 21.3692C20.8859 21.3692 20.4932 21.8425 20.3948 21.9473C19.8752 21.9473 18.8852 21.9295 18.2494 22.1868C17.8588 22.3443 17.719 22.571 17.719 22.8953C17.719 23.3629 18.2422 23.5468 18.8253 23.7235C19.1688 23.8276 19.5545 23.8533 19.8795 23.8533C20.2801 23.8533 21.0477 23.7029 21.8061 23.5361C22.7221 23.3344 23.5731 23.0934 23.8219 23.0015L24.1526 23.5959C23.1334 23.9409 22.0913 24.2681 21.124 24.4648C20.5773 24.576 20.0563 24.6445 19.5915 24.6445C18.8153 24.6445 17.9728 24.3187 17.28 23.9887C16.6955 23.71 16.1744 23.4349 15.7083 23.4349C15.1844 23.4349 14.6919 23.6159 14.2064 23.8932C13.9691 24.0293 13.2527 24.5226 12.6148 24.7728C12.1251 24.9673 11.726 25.075 11.2299 25.075C10.7879 25.075 10.5242 25.0122 10.2954 24.8341L11.0638 24.3636C11.1629 24.4613 11.3403 24.4791 11.4501 24.4791C11.5606 24.4791 11.6925 24.4648 11.994 24.3401C12.1665 24.2674 12.4174 24.1134 12.5642 24.0186C12.8678 23.8226 12.9683 23.7079 13.0881 23.6138C13.3205 23.4299 13.406 23.1861 13.1095 22.9217C12.9643 22.7847 12.8063 22.662 12.6376 22.5553C12.3717 22.3963 12.18 22.2409 11.6996 22.2409C11.1322 22.2388 10.7323 22.3949 10.5128 22.5075Z" fill="#2D2D2D"/>
<path fill-rule="evenodd" clip-rule="evenodd" d="M21.2168 22.8127C21.2168 22.8127 20.7599 22.6859 20.6003 22.6737C20.8879 22.2923 21.2358 21.9603 21.6302 21.6908C22.2539 21.2688 22.9068 21.0379 23.8948 20.978C24.1635 20.9616 24.7109 20.9096 25.0167 20.9224C25.2925 20.9353 25.7587 20.9531 26.1878 21.0322C26.4914 21.0892 26.7744 21.174 27.0096 21.2104C27.1529 21.2325 27.6511 21.2254 27.8243 21.1976C28.5236 21.0878 29.3632 20.8176 29.8052 20.5767L29.9891 21.2489C29.0446 21.7307 27.9776 22.1955 27.0011 22.1955C26.5036 22.1955 25.9754 22.1577 25.4828 22.1121C24.6147 22.0287 23.8634 21.9132 23.6047 21.9132C22.9019 21.9132 21.8904 22.2404 21.2168 22.8127ZM20.5197 26.5506L19.6316 26.1443C20.8633 25.5206 22.745 24.8955 23.517 24.7715C24.2896 24.6503 25.1728 24.5569 25.681 24.3858C25.9141 24.9746 26.3745 25.604 27.0367 25.604C27.2784 25.604 27.6754 25.4215 28.0745 25.2447C28.5229 25.0473 28.9734 24.8313 29.2064 24.7266C29.4588 24.6154 30.277 24.2561 30.9706 23.9468C31.3176 23.789 31.6624 23.6265 32.0048 23.4592L32.471 23.7115C32.3313 24.3238 32.0982 25.0772 31.8359 25.6161C31.7333 25.8278 31.6306 26.0017 31.5201 26.1272C31.3177 26.3553 30.9905 26.6589 30.5636 26.9611C30.0974 27.2926 29.5293 27.6319 28.9263 27.9776C28.4566 28.2491 27.984 28.5236 27.505 28.7431L27.2563 28.2919C27.9947 27.8742 28.7453 27.3453 29.4053 26.8563C29.7175 26.6254 30.0197 26.3916 30.2357 26.1935C30.3961 26.0473 30.4966 25.9262 30.5764 25.8078C30.7724 25.5199 31.0918 24.9561 31.1894 24.6859C30.9143 24.8206 29.8722 25.3125 29.406 25.5562C28.88 25.8335 28.0268 26.2676 27.5485 26.4943C27.1721 26.671 26.8364 26.7687 26.5955 26.7687C26.0616 26.7687 25.8193 26.3845 25.6881 26.1521C25.351 25.5505 24.9896 25.4949 24.0387 25.4828C22.9353 25.4693 21.4214 25.9255 20.5197 26.5506ZM25.7031 23.7778C25.7031 23.7778 25.5741 23.2532 25.5128 23.0622C25.5128 23.0622 25.666 23.0123 25.8685 23.0123C26.1992 23.0123 27.0168 23.1043 27.356 23.1043C28.6334 23.1043 29.1045 22.7022 29.4794 22.3637C29.7995 22.0757 30.1281 21.8405 30.997 21.8405C31.7632 21.8405 32.6428 22.1498 32.8944 22.2717L32.8395 22.9695C32.4257 22.7483 31.9651 22.6291 31.4959 22.6217C31.1794 22.6217 30.8943 22.6466 30.6933 22.7514C30.4674 22.8683 30.3298 23.0437 30.1174 23.2176C29.8921 23.4029 29.5835 23.5825 29.1793 23.7315C28.7752 23.8805 28.2748 23.9824 27.5285 23.9824C26.5435 23.981 26.0096 23.8163 25.7031 23.7778Z" fill="#2D2D2D"/>
<path fill-rule="evenodd" clip-rule="evenodd" d="M17.6135 29.0453L18.2023 28.8015C18.7419 29.0104 19.5216 29.247 20.0641 29.247C20.3905 29.247 20.66 29.1301 20.8816 29.031C21.0556 28.9533 23.0171 27.9911 23.9908 27.6375C24.3002 27.5263 24.6145 27.4636 24.767 27.4636C25.0001 27.4636 25.0136 27.5677 25.0792 27.6753C25.2631 27.969 26.7115 30.0361 26.8583 30.195C28.0865 29.8179 29.3445 29.2648 30.0701 28.5691C30.8264 27.84 31.4544 26.996 32.0609 26.3431C32.2947 26.0908 32.5841 25.8627 32.7274 25.7864C33.3554 25.4521 35.3084 25.4243 36.1295 25.4607L35.6427 26.1499C34.1957 26.1499 33.386 26.2989 33.0218 26.5733C32.8678 26.6888 32.6355 26.9226 32.4138 27.2113C31.9198 27.8556 31.3802 28.7374 31.1643 28.9099C31.5877 29.2035 32.051 29.4608 32.7858 29.4608C34.0118 29.4608 34.89 28.6939 35.3711 28.2605L35.7831 28.5057C35.4787 28.9013 35.1302 29.3062 34.6861 29.6084C34.1936 29.9427 33.5728 30.1594 33.2057 30.2613C32.4943 30.1266 30.9276 29.8101 30.5605 29.7367C29.2055 30.2891 26.9988 31.1815 26.2575 31.4046C26.0935 31.4456 25.9263 31.4721 25.7578 31.4837C25.1719 31.5158 24.3572 31.5115 23.6152 31.503C23.0884 31.4958 22.5902 31.4987 22.34 31.4531L21.6864 30.7709C22.263 30.8807 22.4875 30.9142 23.0264 30.9142C24.3016 30.9142 25.122 30.7011 25.3929 30.6319C25.6202 30.5735 25.658 30.4423 25.5903 30.2364C25.4827 29.9092 25.2938 29.5984 25.0065 29.2662C24.8103 29.0526 24.5949 28.8574 24.3629 28.6832C24.1875 28.5634 24.0165 28.5328 23.5353 28.6974C23.0891 28.8493 21.7049 29.5984 21.1083 29.9156C20.8132 30.0731 20.5837 30.1187 20.0541 29.9933C19.4931 29.8614 18.1517 29.371 17.6135 29.0453ZM21.4519 13.6826C21.5851 13.6826 21.713 13.6296 21.8072 13.5354C21.9014 13.4412 21.9544 13.3133 21.9544 13.1801C21.9544 13.0468 21.9014 12.919 21.8072 12.8247C21.713 12.7305 21.5851 12.6776 21.4519 12.6776C21.3186 12.6776 21.1908 12.7305 21.0965 12.8247C21.0023 12.919 20.9494 13.0468 20.9494 13.1801C20.9494 13.3133 21.0023 13.4412 21.0965 13.5354C21.1908 13.6296 21.3186 13.6826 21.4519 13.6826Z" fill="#2D2D2D"/>
<defs>
<clipPath id="clip0_902_216">
<rect width="115.581" height="35" fill="white" transform="translate(432.928 3)"/>
</clipPath>
<clipPath id="clip1_902_216">
<rect width="60.0916" height="40" fill="white" transform="translate(302.836)"/>
</clipPath>
<clipPath id="clip2_902_216">
<rect width="29.4812" height="35" fill="white" transform="translate(203.354 3)"/>
</clipPath>
</defs>
</svg>
