<svg width="30" height="31" viewBox="0 0 30 31" fill="none" xmlns="http://www.w3.org/2000/svg">
<mask id="mask0_902_1048" style="mask-type:alpha" maskUnits="userSpaceOnUse" x="0" y="0" width="30" height="31">
<circle cx="15" cy="15.9722" r="15" fill="white"/>
</mask>
<g mask="url(#mask0_902_1048)">
<path d="M21.9984 0.972168L15.5 -0.527832L8.9984 0.972168C7.3484 0.972168 0 7.57217 0 9.22217L-2 20.9722C-2 22.6222 7.34944 30.9722 8.99944 30.9722H21.9984C23.6484 30.9722 29 25.6222 29 23.9722L32 10.4722C32 8.82217 23.6484 0.972168 21.9984 0.972168ZM20.4984 3.97217V8.47217H17.4984C16.5984 8.47217 15.9984 9.07217 15.9984 9.97217V12.9722H20.4984V17.4722H15.9984V27.9722H11.4984V17.4722H8.4984V12.9722H11.4984V9.22217C11.4984 6.37217 13.8984 3.97217 16.7484 3.97217H20.4984Z" fill="#2D2D2D"/>
</g>
</svg>
