<svg width="30" height="31" viewBox="0 0 30 31" fill="none" xmlns="http://www.w3.org/2000/svg">
<rect y="0.972168" width="30" height="30" rx="15" fill="#2D2D2D"/>
<g clip-path="url(#clip0_902_1057)">
<path d="M18.6689 7.97217H11.331C8.94287 7.97217 7 9.91504 7 12.3032V19.6412C7 22.0293 8.94287 23.9721 11.331 23.9721H18.669C21.0571 23.9721 23 22.0293 23 19.6412V12.3032C23 9.91504 21.0571 7.97217 18.6689 7.97217V7.97217ZM15 20.347C12.5876 20.347 10.6251 18.3845 10.6251 15.9722C10.6251 13.5598 12.5876 11.5973 15 11.5973C17.4123 11.5973 19.3749 13.5598 19.3749 15.9722C19.3749 18.3845 17.4123 20.347 15 20.347ZM19.4795 12.629C18.7666 12.629 18.1867 12.0492 18.1867 11.3363C18.1867 10.6234 18.7666 10.0435 19.4795 10.0435C20.1924 10.0435 20.7723 10.6234 20.7723 11.3363C20.7723 12.0492 20.1924 12.629 19.4795 12.629Z" fill="white"/>
<path d="M15.0008 12.5354C13.1057 12.5354 11.5638 14.0772 11.5638 15.9723C11.5638 17.8673 13.1057 19.4092 15.0008 19.4092C16.8959 19.4092 18.4377 17.8673 18.4377 15.9723C18.4377 14.0772 16.8959 12.5354 15.0008 12.5354Z" fill="white"/>
<path d="M19.4792 10.9814C19.2837 10.9814 19.1245 11.1406 19.1245 11.3362C19.1245 11.5317 19.2837 11.6909 19.4792 11.6909C19.6749 11.6909 19.8341 11.5318 19.8341 11.3362C19.8341 11.1405 19.6749 10.9814 19.4792 10.9814Z" fill="white"/>
</g>
<defs>
<clipPath id="clip0_902_1057">
<rect width="16" height="16" fill="white" transform="translate(7 7.97217)"/>
</clipPath>
</defs>
</svg>
