<svg width="30" height="31" viewBox="0 0 30 31" fill="none" xmlns="http://www.w3.org/2000/svg">
<mask id="mask0_902_1051" style="mask-type:alpha" maskUnits="userSpaceOnUse" x="0" y="0" width="30" height="31">
<g clip-path="url(#clip0_902_1051)">
<path d="M27.8364 0.972168H2.16362C0.968628 0.972168 0 1.9408 0 3.13579V28.8085C0 30.0035 0.968628 30.9722 2.16362 30.9722H27.8364C29.0314 30.9722 30 30.0035 30 28.8085V3.13579C30 1.9408 29.0314 0.972168 27.8364 0.972168V0.972168ZM10.6412 23.6479H6.98799V12.6573H10.6412V23.6479ZM8.8147 11.1565H8.79089C7.565 11.1565 6.77216 10.3126 6.77216 9.25792C6.77216 8.17943 7.58926 7.35889 8.83896 7.35889C10.0887 7.35889 10.8577 8.17943 10.8815 9.25792C10.8815 10.3126 10.0887 11.1565 8.8147 11.1565ZM23.8138 23.6479H20.1611V17.7682C20.1611 16.2905 19.6321 15.2828 18.3103 15.2828C17.3012 15.2828 16.7001 15.9626 16.436 16.6188C16.3394 16.8536 16.3158 17.1818 16.3158 17.5103V23.6479H12.6629C12.6629 23.6479 12.7107 13.6884 12.6629 12.6573H16.3158V14.2134C16.8013 13.4645 17.6699 12.3993 19.6081 12.3993C22.0116 12.3993 23.8138 13.9701 23.8138 17.3459V23.6479Z" fill="white"/>
</g>
</mask>
<g mask="url(#mask0_902_1051)">
<circle cx="15" cy="15.9722" r="15" fill="#2D2D2D"/>
</g>
<defs>
<clipPath id="clip0_902_1051">
<rect width="30" height="30" fill="white" transform="translate(0 0.972168)"/>
</clipPath>
</defs>
</svg>
