<svg width="63" height="46" viewBox="0 0 63 46" fill="none" xmlns="http://www.w3.org/2000/svg">
<path d="M0.5 30.6413C0.5 38.9662 6.61624 45.9319 13.7519 45.9319C20.7176 45.9319 25.9844 40.6652 25.9844 33.8693C25.9844 26.5638 19.5283 21.6369 11.0335 21.1272C13.2422 15.6905 16.9799 9.91406 24.2854 2.60854L22.0768 0.399902C7.97541 8.385 0.5 20.4476 0.5 30.6413ZM36.8577 30.6413C36.8577 38.9662 42.9739 45.9319 50.1095 45.9319C57.0753 45.9319 62.342 40.6652 62.342 33.8693C62.342 26.5638 55.886 21.6369 47.3912 21.1272C49.5999 15.6905 53.3376 9.91406 60.6431 2.60854L58.4344 0.399902C44.3331 8.385 36.8577 20.4476 36.8577 30.6413Z" fill="#2D2D2D"/>
</svg>
