<svg width="30" height="31" viewBox="0 0 30 31" fill="none" xmlns="http://www.w3.org/2000/svg">
<mask id="mask0_902_1063" style="mask-type:alpha" maskUnits="userSpaceOnUse" x="0" y="0" width="30" height="31">
<g clip-path="url(#clip0_902_1063)">
<path d="M27.8364 0.972168H2.16362C0.968628 0.972168 0 1.9408 0 3.13579V28.8085C0 30.0035 0.968628 30.9722 2.16362 30.9722H27.8364C29.0314 30.9722 30 30.0035 30 28.8085V3.13579C30 1.9408 29.0314 0.972168 27.8364 0.972168V0.972168ZM21.8488 12.6676C21.8555 12.8152 21.8587 12.9635 21.8587 13.1125C21.8587 17.662 18.3957 22.9082 12.0628 22.9084H12.063H12.0628C10.1184 22.9084 8.3091 22.3385 6.78543 21.3619C7.05482 21.3937 7.32903 21.4095 7.60666 21.4095C9.21982 21.4095 10.7043 20.8593 11.8829 19.9357C10.3757 19.9078 9.10492 18.9124 8.66638 17.5444C8.87627 17.5846 9.0921 17.6066 9.31343 17.6066C9.62769 17.6066 9.9321 17.5643 10.2214 17.4853C8.64601 17.1699 7.45926 15.7776 7.45926 14.1104C7.45926 14.0949 7.45926 14.0809 7.45972 14.0665C7.92366 14.3244 8.45421 14.4796 9.01909 14.497C8.09464 13.8802 7.48695 12.8257 7.48695 11.6312C7.48695 11.0004 7.65747 10.4094 7.95319 9.90062C9.65103 11.9839 12.1884 13.354 15.0499 13.498C14.9908 13.2457 14.9604 12.983 14.9604 12.7129C14.9604 10.8123 16.5024 9.27028 18.4037 9.27028C19.3941 9.27028 20.2885 9.6889 20.9168 10.3582C21.7012 10.2034 22.4377 9.91687 23.1031 9.52251C22.8456 10.3261 22.3 11.0004 21.5891 11.4268C22.2855 11.3435 22.9493 11.1588 23.5661 10.8846C23.1054 11.5751 22.5211 12.1817 21.8488 12.6676Z" fill="white"/>
</g>
</mask>
<g mask="url(#mask0_902_1063)">
<circle cx="15" cy="15.9722" r="15" fill="#2D2D2D"/>
</g>
<defs>
<clipPath id="clip0_902_1063">
<rect width="30" height="30" fill="white" transform="translate(0 0.972168)"/>
</clipPath>
</defs>
</svg>
